<svg version="1.1" viewBox="0.0 0.0 600.0 371.0" fill="none" stroke="none" stroke-linecap="square" stroke-miterlimit="10" width="600" height="371" xmlns:xlink="http://www.w3.org/1999/xlink" xmlns="http://www.w3.org/2000/svg"><path fill="#ffffff" d="M0 0L600.0 0L600.0 371.0L0 371.0L0 0Z" fill-rule="nonzero"/><path stroke="#333333" stroke-width="1.0" stroke-linecap="butt" d="M45.5 332.5L581.5 332.5" fill-rule="nonzero"/><path stroke="#cccccc" stroke-width="1.0" stroke-linecap="butt" d="M45.5 230.5L581.5 230.5" fill-rule="nonzero"/><path stroke="#cccccc" stroke-width="1.0" stroke-linecap="butt" d="M45.5 127.5L581.5 127.5" fill-rule="nonzero"/><path stroke="#cccccc" stroke-width="1.0" stroke-linecap="butt" d="M45.5 25.5L581.5 25.5" fill-rule="nonzero"/><clipPath id="id_0"><path d="M45.55 25.55L581.45 25.55L581.45 332.45L45.55 332.45L45.55 25.55Z" clip-rule="nonzero"/></clipPath><path stroke="#4285f4" stroke-width="2.0" stroke-linecap="butt" clip-path="url(#id_0)" d="M153.52985 64.6286L153.52985 292.553" fill-rule="nonzero"/><path stroke="#4285f4" stroke-width="2.0" stroke-linecap="butt" clip-path="url(#id_0)" d="M153.52985 306.875L153.52985 207.2348" fill-rule="nonzero"/><path fill="#4285f4" clip-path="url(#id_0)" d="M100.53955 206.2348L206.52014 206.2348L206.52014 293.553L100.53955 293.553L100.53955 206.2348Z" fill-rule="nonzero"/><path stroke="#4285f4" stroke-width="2.0" stroke-linecap="butt" clip-path="url(#id_0)" d="M313.5 241.6076L313.5 306.2612" fill-rule="nonzero"/><path stroke="#4285f4" stroke-width="2.0" stroke-linecap="butt" clip-path="url(#id_0)" d="M313.5 319.3556L313.5 297.4634" fill-rule="nonzero"/><path fill="#4285f4" clip-path="url(#id_0)" d="M260.5097 296.4634L366.4903 296.4634L366.4903 307.2612L260.5097 307.2612L260.5097 296.4634Z" fill-rule="nonzero"/><path stroke="#4285f4" stroke-width="2.0" stroke-linecap="butt" clip-path="url(#id_0)" d="M473.47015 254.9066L473.47015 308.1026" fill-rule="nonzero"/><path stroke="#4285f4" stroke-width="2.0" stroke-linecap="butt" clip-path="url(#id_0)" d="M473.47015 322.0154L473.47015 298.8956" fill-rule="nonzero"/><path fill="#4285f4" clip-path="url(#id_0)" d="M420.47986 297.8956L526.46045 297.8956L526.46045 309.1026L420.47986 309.1026L420.47986 297.8956Z" fill-rule="nonzero"/><path fill="#000000" d="M23.05 332.21564Q23.05 330.6844 23.3625 329.7625Q23.675 328.825 24.284374 328.325Q24.909374 327.825 25.846874 327.825Q26.534374 327.825 27.05 328.10626Q27.58125 328.3875 27.925 328.91876Q28.26875 329.4344 28.45625 330.1844Q28.64375 330.9344 28.64375 332.21564Q28.64375 333.73126 28.33125 334.65314Q28.034374 335.575 27.409374 336.09064Q26.8 336.59064 25.846874 336.59064Q24.6125 336.59064 23.89375 335.7Q23.05 334.6375 23.05 332.21564ZM24.128124 332.21564Q24.128124 334.325 24.628124 335.02814Q25.128124 335.73126 25.846874 335.73126Q26.58125 335.73126 27.065624 335.02814Q27.565624 334.325 27.565624 332.21564Q27.565624 330.09064 27.065624 329.40314Q26.58125 328.7 25.83125 328.7Q25.1125 328.7 24.675 329.3094Q24.128124 330.09064 24.128124 332.21564ZM30.64375 336.45L30.64375 335.2469L31.846874 335.2469L31.846874 336.45L30.64375 336.45ZM33.05 332.21564Q33.05 330.6844 33.3625 329.7625Q33.675 328.825 34.284374 328.325Q34.909374 327.825 35.846874 327.825Q36.534374 327.825 37.05 328.10626Q37.58125 328.3875 37.925 328.91876Q38.26875 329.4344 38.45625 330.1844Q38.64375 330.9344 38.64375 332.21564Q38.64375 333.73126 38.33125 334.65314Q38.034374 335.575 37.409374 336.09064Q36.8 336.59064 35.846874 336.59064Q34.6125 336.59064 33.89375 335.7Q33.05 334.6375 33.05 332.21564ZM34.128124 332.21564Q34.128124 334.325 34.628124 335.02814Q35.128124 335.73126 35.846874 335.73126Q36.58125 335.73126 37.065624 335.02814Q37.565624 334.325 37.565624 332.21564Q37.565624 330.09064 37.065624 329.40314Q36.58125 328.7 35.83125 328.7Q35.1125 328.7 34.675 329.3094Q34.128124 330.09064 34.128124 332.21564Z" fill-rule="nonzero"/><path fill="#000000" d="M23.05 229.91562Q23.05 228.38437 23.3625 227.4625Q23.675 226.525 24.284374 226.025Q24.909374 225.525 25.846874 225.525Q26.534374 225.525 27.05 225.80624Q27.58125 226.0875 27.925 226.61874Q28.26875 227.13437 28.45625 227.88437Q28.64375 228.63437 28.64375 229.91562Q28.64375 231.43124 28.33125 232.35312Q28.034374 233.275 27.409374 233.79062Q26.8 234.29062 25.846874 234.29062Q24.6125 234.29062 23.89375 233.4Q23.05 232.3375 23.05 229.91562ZM24.128124 229.91562Q24.128124 232.025 24.628124 232.72812Q25.128124 233.43124 25.846874 233.43124Q26.58125 233.43124 27.065624 232.72812Q27.565624 232.025 27.565624 229.91562Q27.565624 227.79062 27.065624 227.10312Q26.58125 226.4 25.83125 226.4Q25.1125 226.4 24.675 227.00937Q24.128124 227.79062 24.128124 229.91562ZM30.64375 234.15L30.64375 232.94687L31.846874 232.94687L31.846874 234.15L30.64375 234.15ZM33.05 231.9L34.159374 231.80624Q34.284374 232.61874 34.721874 233.025Q35.175 233.43124 35.815624 233.43124Q36.565624 233.43124 37.096874 232.85312Q37.628124 232.275 37.628124 231.3375Q37.628124 230.43124 37.1125 229.91562Q36.6125 229.38437 35.784374 229.38437Q35.284374 229.38437 34.8625 229.61874Q34.45625 229.85312 34.221874 230.2125L33.2375 230.0875L34.065624 225.68124L38.346874 225.68124L38.346874 226.68124L34.909374 226.68124L34.45625 228.99374Q35.221874 228.44687 36.065624 228.44687Q37.190624 228.44687 37.95625 229.22812Q38.7375 230.00937 38.7375 231.24374Q38.7375 232.4 38.065624 233.25937Q37.2375 234.29062 35.815624 234.29062Q34.64375 234.29062 33.89375 233.63437Q33.159374 232.97812 33.05 231.9Z" fill-rule="nonzero"/><path fill="#000000" d="M27.01875 131.85L25.971874 131.85L25.971874 125.131256Q25.58125 125.49063 24.95625 125.86563Q24.346874 126.225006 23.8625 126.39688L23.8625 125.381256Q24.7375 124.95938 25.39375 124.381256Q26.065624 123.787506 26.346874 123.225006L27.01875 123.225006L27.01875 131.85ZM30.64375 131.85L30.64375 130.64688L31.846874 130.64688L31.846874 131.85L30.64375 131.85ZM33.05 127.61563Q33.05 126.08438 33.3625 125.162506Q33.675 124.225006 34.284374 123.725006Q34.909374 123.225006 35.846874 123.225006Q36.534374 123.225006 37.05 123.506256Q37.58125 123.787506 37.925 124.318756Q38.26875 124.83438 38.45625 125.58438Q38.64375 126.33438 38.64375 127.61563Q38.64375 129.13126 38.33125 130.05313Q38.034374 130.975 37.409374 131.49063Q36.8 131.99063 35.846874 131.99063Q34.6125 131.99063 33.89375 131.1Q33.05 130.0375 33.05 127.61563ZM34.128124 127.61563Q34.128124 129.725 34.628124 130.42813Q35.128124 131.13126 35.846874 131.13126Q36.58125 131.13126 37.065624 130.42813Q37.565624 129.725 37.565624 127.61563Q37.565624 125.49063 37.065624 124.80313Q36.58125 124.100006 35.83125 124.100006Q35.1125 124.100006 34.675 124.70938Q34.128124 125.49063 34.128124 127.61563Z" fill-rule="nonzero"/><path fill="#000000" d="M27.01875 29.55L25.971874 29.55L25.971874 22.83125Q25.58125 23.190624 24.95625 23.565624Q24.346874 23.925 23.8625 24.096874L23.8625 23.08125Q24.7375 22.659374 25.39375 22.08125Q26.065624 21.4875 26.346874 20.925L27.01875 20.925L27.01875 29.55ZM30.64375 29.55L30.64375 28.346874L31.846874 28.346874L31.846874 29.55L30.64375 29.55ZM33.05 27.3L34.159374 27.20625Q34.284374 28.01875 34.721874 28.425Q35.175 28.83125 35.815624 28.83125Q36.565624 28.83125 37.096874 28.253124Q37.628124 27.675 37.628124 26.7375Q37.628124 25.83125 37.1125 25.315624Q36.6125 24.784374 35.784374 24.784374Q35.284374 24.784374 34.8625 25.01875Q34.45625 25.253124 34.221874 25.6125L33.2375 25.4875L34.065624 21.08125L38.346874 21.08125L38.346874 22.08125L34.909374 22.08125L34.45625 24.39375Q35.221874 23.846874 36.065624 23.846874Q37.190624 23.846874 37.95625 24.628124Q38.7375 25.409374 38.7375 26.64375Q38.7375 27.8 38.065624 28.659374Q37.2375 29.690624 35.815624 29.690624Q34.64375 29.690624 33.89375 29.034374Q33.159374 28.378124 33.05 27.3Z" fill-rule="nonzero"/><path fill="#000000" d="M110.904854 347.59064L111.936104 347.4344Q112.029854 348.0594 112.42048 348.3875Q112.82673 348.71564 113.561104 348.71564Q114.279854 348.71564 114.623604 348.4344Q114.98298 348.1375 114.98298 347.73126Q114.98298 347.3719 114.67048 347.16876Q114.45173 347.02814 113.592354 346.8094Q112.436104 346.5125 111.98298 346.3094Q111.54548 346.09064 111.311104 345.71564Q111.07673 345.34064 111.07673 344.8719Q111.07673 344.46564 111.26423 344.10626Q111.45173 343.7469 111.779854 343.5125Q112.029854 343.34064 112.45173 343.21564Q112.873604 343.09064 113.373604 343.09064Q114.092354 343.09064 114.63923 343.3094Q115.20173 343.5125 115.467354 343.8719Q115.73298 344.23126 115.82673 344.825L114.79548 344.96564Q114.73298 344.4969 114.38923 344.23126Q114.061104 343.95 113.436104 343.95Q112.717354 343.95 112.404854 344.2Q112.092354 344.4344 112.092354 344.7625Q112.092354 344.96564 112.217354 345.1219Q112.35798 345.29376 112.623604 345.40314Q112.779854 345.46564 113.561104 345.66876Q114.686104 345.98126 115.123604 346.16876Q115.561104 346.35626 115.811104 346.71564Q116.061104 347.075 116.061104 347.6219Q116.061104 348.15314 115.748604 348.6219Q115.45173 349.075 114.873604 349.34064Q114.29548 349.59064 113.561104 349.59064Q112.342354 349.59064 111.70173 349.09064Q111.07673 348.575 110.904854 347.59064ZM117.32673 342.075L117.32673 340.85626L118.38923 340.85626L118.38923 342.075L117.32673 342.075ZM117.32673 349.45L117.32673 343.23126L118.38923 343.23126L118.38923 349.45L117.32673 349.45ZM120.32673 349.45L120.32673 343.23126L121.26423 343.23126L121.26423 344.10626Q121.95173 343.09064 123.248604 343.09064Q123.811104 343.09064 124.279854 343.29376Q124.76423 343.4969 124.998604 343.825Q125.23298 344.15314 125.32673 344.59064Q125.373604 344.8875 125.373604 345.6219L125.373604 349.45L124.32673 349.45L124.32673 345.66876Q124.32673 345.0125 124.20173 344.7Q124.07673 344.3875 123.76423 344.2Q123.45173 343.9969 123.029854 343.9969Q122.35798 343.9969 121.85798 344.4344Q121.373604 344.85626 121.373604 346.04376L121.373604 349.45L120.32673 349.45ZM127.123604 349.96564L128.15485 350.1219Q128.21735 350.59064 128.51422 350.8094Q128.90485 351.10626 129.57672 351.10626Q130.3111 351.10626 130.70172 350.8094Q131.10797 350.5125 131.2486 349.9969Q131.34235 349.66876 131.32672 348.6375Q130.63922 349.45 129.60797 349.45Q128.32672 349.45 127.623604 348.52814Q126.92048 347.59064 126.92048 346.3094Q126.92048 345.41876 127.23298 344.66876Q127.561104 343.90314 128.17047 343.4969Q128.77985 343.09064 129.60797 343.09064Q130.71735 343.09064 131.4361 343.98126L131.4361 343.23126L132.40485 343.23126L132.40485 348.60626Q132.40485 350.0594 132.10797 350.66876Q131.8111 351.27814 131.17047 351.6219Q130.52985 351.98126 129.59235 351.98126Q128.48297 351.98126 127.79548 351.48126Q127.10798 350.98126 127.123604 349.96564ZM127.998604 346.23126Q127.998604 347.45 128.48297 348.0125Q128.96735 348.575 129.70172 348.575Q130.4361 348.575 130.92047 348.0125Q131.42047 347.45 131.42047 346.2625Q131.42047 345.1219 130.90485 344.54376Q130.40485 343.96564 129.6861 343.96564Q128.98297 343.96564 128.48297 344.54376Q127.998604 345.10626 127.998604 346.23126ZM134.29547 349.45L134.29547 340.85626L135.35797 340.85626L135.35797 349.45L134.29547 349.45ZM141.57672 347.45L142.67047 347.575Q142.42047 348.52814 141.71735 349.0594Q141.01422 349.59064 139.9361 349.59064Q138.57672 349.59064 137.76422 348.7469Q136.96735 347.90314 136.96735 346.3875Q136.96735 344.825 137.77985 343.96564Q138.59235 343.09064 139.8736 343.09064Q141.1236 343.09064 141.90485 343.9344Q142.70172 344.77814 142.70172 346.325Q142.70172 346.41876 142.70172 346.60626L138.0611 346.60626Q138.1236 347.6375 138.63922 348.1844Q139.15485 348.71564 139.9361 348.71564Q140.51422 348.71564 140.92047 348.41876Q141.34235 348.10626 141.57672 347.45ZM138.1236 345.7469L141.59235 345.7469Q141.52985 344.95 141.20172 344.5594Q140.6861 343.95 139.88922 343.95Q139.15485 343.95 138.65485 344.4344Q138.17047 344.91876 138.1236 345.7469ZM143.90485 346.8719L143.90485 345.8094L147.15485 345.8094L147.15485 346.8719L143.90485 346.8719ZM150.6236 348.5125L150.77985 349.4344Q150.32672 349.52814 149.98297 349.52814Q149.40485 349.52814 149.09235 349.35626Q148.77985 349.16876 148.63922 348.8719Q148.51422 348.575 148.51422 347.6219L148.51422 344.04376L147.7486 344.04376L147.7486 343.23126L148.51422 343.23126L148.51422 341.6844L149.5611 341.0594L149.5611 343.23126L150.6236 343.23126L150.6236 344.04376L149.5611 344.04376L149.5611 347.6844Q149.5611 348.1375 149.60797 348.2625Q149.67047 348.3875 149.79547 348.46564Q149.92047 348.54376 150.15485 348.54376Q150.34235 348.54376 150.6236 348.5125ZM151.32672 349.45L151.32672 340.85626L152.3736 340.85626L152.3736 343.9344Q153.10797 343.09064 154.23297 343.09064Q154.9361 343.09064 155.4361 343.3719Q155.95172 343.6375 156.17047 344.1219Q156.38922 344.59064 156.38922 345.5125L156.38922 349.45L155.34235 349.45L155.34235 345.5125Q155.34235 344.71564 154.9986 344.35626Q154.65485 343.9969 154.02985 343.9969Q153.5611 343.9969 153.13922 344.2469Q152.73297 344.48126 152.54547 344.90314Q152.3736 345.3094 152.3736 346.04376L152.3736 349.45L151.32672 349.45ZM158.3111 349.45L158.3111 343.23126L159.26422 343.23126L159.26422 344.16876Q159.6236 343.5125 159.92047 343.3094Q160.23297 343.09064 160.60797 343.09064Q161.13922 343.09064 161.6861 343.41876L161.32672 344.40314Q160.9361 344.16876 160.5611 344.16876Q160.20172 344.16876 159.92047 344.3875Q159.65485 344.59064 159.54547 344.96564Q159.35797 345.52814 159.35797 346.1844L159.35797 349.45L158.3111 349.45ZM166.57672 347.45L167.67047 347.575Q167.42047 348.52814 166.71735 349.0594Q166.01422 349.59064 164.9361 349.59064Q163.57672 349.59064 162.76422 348.7469Q161.96735 347.90314 161.96735 346.3875Q161.96735 344.825 162.77985 343.96564Q163.59235 343.09064 164.8736 343.09064Q166.1236 343.09064 166.90485 343.9344Q167.70172 344.77814 167.70172 346.325Q167.70172 346.41876 167.70172 346.60626L163.0611 346.60626Q163.1236 347.6375 163.63922 348.1844Q164.15485 348.71564 164.9361 348.71564Q165.51422 348.71564 165.92047 348.41876Q166.34235 348.10626 166.57672 347.45ZM163.1236 345.7469L166.59235 345.7469Q166.52985 344.95 166.20172 344.5594Q165.6861 343.95 164.88922 343.95Q164.15485 343.95 163.65485 344.4344Q163.17047 344.91876 163.1236 345.7469ZM173.38922 348.6844Q172.79547 349.1844 172.2486 349.3875Q171.71735 349.59064 171.09235 349.59064Q170.0611 349.59064 169.51422 349.09064Q168.96735 348.59064 168.96735 347.8094Q168.96735 347.35626 169.17047 346.98126Q169.3736 346.59064 169.71735 346.3719Q170.0611 346.1375 170.48297 346.02814Q170.77985 345.9344 171.42047 345.85626Q172.6861 345.71564 173.29547 345.4969Q173.29547 345.27814 173.29547 345.23126Q173.29547 344.575 172.9986 344.3094Q172.59235 343.96564 171.79547 343.96564Q171.0611 343.96564 170.70172 344.23126Q170.34235 344.48126 170.17047 345.1375L169.13922 344.9969Q169.27985 344.34064 169.60797 343.9344Q169.9361 343.52814 170.54547 343.3094Q171.15485 343.09064 171.95172 343.09064Q172.7486 343.09064 173.2486 343.27814Q173.7486 343.46564 173.98297 343.7469Q174.21735 344.02814 174.3111 344.46564Q174.35797 344.73126 174.35797 345.4344L174.35797 346.84064Q174.35797 348.3094 174.42047 348.7Q174.4986 349.09064 174.70172 349.45L173.59235 349.45Q173.4361 349.1219 173.38922 348.6844ZM173.29547 346.325Q172.71735 346.5594 171.57672 346.73126Q170.92047 346.825 170.65485 346.95Q170.38922 347.0594 170.23297 347.27814Q170.09235 347.4969 170.09235 347.77814Q170.09235 348.2 170.40485 348.48126Q170.73297 348.7625 171.34235 348.7625Q171.95172 348.7625 172.42047 348.4969Q172.90485 348.23126 173.1236 347.7625Q173.29547 347.40314 173.29547 346.71564L173.29547 346.325ZM180.35797 349.45L180.35797 348.66876Q179.76422 349.59064 178.6236 349.59064Q177.8736 349.59064 177.2486 349.1844Q176.6236 348.7625 176.27985 348.02814Q175.9361 347.29376 175.9361 346.34064Q175.9361 345.41876 176.2486 344.65314Q176.5611 343.8875 177.1861 343.4969Q177.8111 343.09064 178.57672 343.09064Q179.13922 343.09064 179.57672 343.325Q180.01422 343.5594 180.29547 343.9344L180.29547 340.85626L181.34235 340.85626L181.34235 349.45L180.35797 349.45ZM177.02985 346.34064Q177.02985 347.54376 177.52985 348.1375Q178.02985 348.71564 178.71735 348.71564Q179.40485 348.71564 179.88922 348.15314Q180.3736 347.59064 180.3736 346.4344Q180.3736 345.15314 179.8736 344.5594Q179.38922 343.96564 178.67047 343.96564Q177.96735 343.96564 177.4986 344.54376Q177.02985 345.10626 177.02985 346.34064ZM187.57672 347.45L188.67047 347.575Q188.42047 348.52814 187.71735 349.0594Q187.01422 349.59064 185.9361 349.59064Q184.57672 349.59064 183.76422 348.7469Q182.96735 347.90314 182.96735 346.3875Q182.96735 344.825 183.77985 343.96564Q184.59235 343.09064 185.8736 343.09064Q187.1236 343.09064 187.90485 343.9344Q188.70172 344.77814 188.70172 346.325Q188.70172 346.41876 188.70172 346.60626L184.0611 346.60626Q184.1236 347.6375 184.63922 348.1844Q185.15485 348.71564 185.9361 348.71564Q186.51422 348.71564 186.92047 348.41876Q187.34235 348.10626 187.57672 347.45ZM184.1236 345.7469L187.59235 345.7469Q187.52985 344.95 187.20172 344.5594Q186.6861 343.95 185.88922 343.95Q185.15485 343.95 184.65485 344.4344Q184.17047 344.91876 184.1236 345.7469ZM194.35797 349.45L194.35797 348.66876Q193.76422 349.59064 192.6236 349.59064Q191.8736 349.59064 191.2486 349.1844Q190.6236 348.7625 190.27985 348.02814Q189.9361 347.29376 189.9361 346.34064Q189.9361 345.41876 190.2486 344.65314Q190.5611 343.8875 191.1861 343.4969Q191.8111 343.09064 192.57672 343.09064Q193.13922 343.09064 193.57672 343.325Q194.01422 343.5594 194.29547 343.9344L194.29547 340.85626L195.34235 340.85626L195.34235 349.45L194.35797 349.45ZM191.02985 346.34064Q191.02985 347.54376 191.52985 348.1375Q192.02985 348.71564 192.71735 348.71564Q193.40485 348.71564 193.88922 348.15314Q194.3736 347.59064 194.3736 346.4344Q194.3736 345.15314 193.8736 344.5594Q193.38922 343.96564 192.67047 343.96564Q191.96735 343.96564 191.4986 344.54376Q191.02985 345.10626 191.02985 346.34064Z" fill-rule="nonzero"/><path fill="#000000" d="M253.79688 349.45L253.79688 343.23126L254.73438 343.23126L254.73438 344.10626Q255.03125 343.6375 255.51562 343.3719Q256.0 343.09064 256.625 343.09064Q257.3125 343.09064 257.75 343.3719Q258.20312 343.65314 258.375 344.16876Q259.125 343.09064 260.29688 343.09064Q261.23438 343.09064 261.71875 343.60626Q262.21875 344.10626 262.21875 345.1844L262.21875 349.45L261.17188 349.45L261.17188 345.52814Q261.17188 344.90314 261.0625 344.6219Q260.96875 344.34064 260.70312 344.16876Q260.4375 343.9969 260.0625 343.9969Q259.40625 343.9969 258.96875 344.4344Q258.54688 344.8719 258.54688 345.84064L258.54688 349.45L257.48438 349.45L257.48438 345.40314Q257.48438 344.7 257.21875 344.35626Q256.96875 343.9969 256.39062 343.9969Q255.9375 343.9969 255.5625 344.23126Q255.1875 344.46564 255.01562 344.91876Q254.84375 345.3719 254.84375 346.21564L254.84375 349.45L253.79688 349.45ZM267.875 349.45L267.875 348.52814Q267.14062 349.59064 265.89062 349.59064Q265.34375 349.59064 264.85938 349.3875Q264.39062 349.16876 264.15625 348.85626Q263.92188 348.52814 263.82812 348.0594Q263.76562 347.7625 263.76562 347.075L263.76562 343.23126L264.82812 343.23126L264.82812 346.6844Q264.82812 347.4969 264.89062 347.79376Q264.98438 348.2 265.29688 348.45Q265.625 348.6844 266.10938 348.6844Q266.57812 348.6844 266.98438 348.45Q267.40625 348.2 267.57812 347.77814Q267.76562 347.35626 267.76562 346.5594L267.76562 343.23126L268.8125 343.23126L268.8125 349.45L267.875 349.45ZM270.76562 349.45L270.76562 340.85626L271.82812 340.85626L271.82812 349.45L270.76562 349.45ZM276.09375 348.5125L276.25 349.4344Q275.79688 349.52814 275.45312 349.52814Q274.875 349.52814 274.5625 349.35626Q274.25 349.16876 274.10938 348.8719Q273.98438 348.575 273.98438 347.6219L273.98438 344.04376L273.21875 344.04376L273.21875 343.23126L273.98438 343.23126L273.98438 341.6844L275.03125 341.0594L275.03125 343.23126L276.09375 343.23126L276.09375 344.04376L275.03125 344.04376L275.03125 347.6844Q275.03125 348.1375 275.07812 348.2625Q275.14062 348.3875 275.26562 348.46564Q275.39062 348.54376 275.625 348.54376Q275.8125 348.54376 276.09375 348.5125ZM276.79688 342.075L276.79688 340.85626L277.85938 340.85626L277.85938 342.075L276.79688 342.075ZM276.79688 349.45L276.79688 343.23126L277.85938 343.23126L277.85938 349.45L276.79688 349.45ZM279.375 346.8719L279.375 345.8094L282.625 345.8094L282.625 346.8719L279.375 346.8719ZM286.09375 348.5125L286.25 349.4344Q285.79688 349.52814 285.45312 349.52814Q284.875 349.52814 284.5625 349.35626Q284.25 349.16876 284.10938 348.8719Q283.98438 348.575 283.98438 347.6219L283.98438 344.04376L283.21875 344.04376L283.21875 343.23126L283.98438 343.23126L283.98438 341.6844L285.03125 341.0594L285.03125 343.23126L286.09375 343.23126L286.09375 344.04376L285.03125 344.04376L285.03125 347.6844Q285.03125 348.1375 285.07812 348.2625Q285.14062 348.3875 285.26562 348.46564Q285.39062 348.54376 285.625 348.54376Q285.8125 348.54376 286.09375 348.5125ZM286.79688 349.45L286.79688 340.85626L287.84375 340.85626L287.84375 343.9344Q288.57812 343.09064 289.70312 343.09064Q290.40625 343.09064 290.90625 343.3719Q291.42188 343.6375 291.64062 344.1219Q291.85938 344.59064 291.85938 345.5125L291.85938 349.45L290.8125 349.45L290.8125 345.5125Q290.8125 344.71564 290.46875 344.35626Q290.125 343.9969 289.5 343.9969Q289.03125 343.9969 288.60938 344.2469Q288.20312 344.48126 288.01562 344.90314Q287.84375 345.3094 287.84375 346.04376L287.84375 349.45L286.79688 349.45ZM293.78125 349.45L293.78125 343.23126L294.73438 343.23126L294.73438 344.16876Q295.09375 343.5125 295.39062 343.3094Q295.70312 343.09064 296.07812 343.09064Q296.60938 343.09064 297.15625 343.41876L296.79688 344.40314Q296.40625 344.16876 296.03125 344.16876Q295.67188 344.16876 295.39062 344.3875Q295.125 344.59064 295.01562 344.96564Q294.82812 345.52814 294.82812 346.1844L294.82812 349.45L293.78125 349.45ZM302.04688 347.45L303.14062 347.575Q302.89062 348.52814 302.1875 349.0594Q301.48438 349.59064 300.40625 349.59064Q299.04688 349.59064 298.23438 348.7469Q297.4375 347.90314 297.4375 346.3875Q297.4375 344.825 298.25 343.96564Q299.0625 343.09064 300.34375 343.09064Q301.59375 343.09064 302.375 343.9344Q303.17188 344.77814 303.17188 346.325Q303.17188 346.41876 303.17188 346.60626L298.53125 346.60626Q298.59375 347.6375 299.10938 348.1844Q299.625 348.71564 300.40625 348.71564Q300.98438 348.71564 301.39062 348.41876Q301.8125 348.10626 302.04688 347.45ZM298.59375 345.7469L302.0625 345.7469Q302.0 344.95 301.67188 344.5594Q301.15625 343.95 300.35938 343.95Q299.625 343.95 299.125 344.4344Q298.64062 344.91876 298.59375 345.7469ZM308.85938 348.6844Q308.26562 349.1844 307.71875 349.3875Q307.1875 349.59064 306.5625 349.59064Q305.53125 349.59064 304.98438 349.09064Q304.4375 348.59064 304.4375 347.8094Q304.4375 347.35626 304.64062 346.98126Q304.84375 346.59064 305.1875 346.3719Q305.53125 346.1375 305.95312 346.02814Q306.25 345.9344 306.89062 345.85626Q308.15625 345.71564 308.76562 345.4969Q308.76562 345.27814 308.76562 345.23126Q308.76562 344.575 308.46875 344.3094Q308.0625 343.96564 307.26562 343.96564Q306.53125 343.96564 306.17188 344.23126Q305.8125 344.48126 305.64062 345.1375L304.60938 344.9969Q304.75 344.34064 305.07812 343.9344Q305.40625 343.52814 306.01562 343.3094Q306.625 343.09064 307.42188 343.09064Q308.21875 343.09064 308.71875 343.27814Q309.21875 343.46564 309.45312 343.7469Q309.6875 344.02814 309.78125 344.46564Q309.82812 344.73126 309.82812 345.4344L309.82812 346.84064Q309.82812 348.3094 309.89062 348.7Q309.96875 349.09064 310.17188 349.45L309.0625 349.45Q308.90625 349.1219 308.85938 348.6844ZM308.76562 346.325Q308.1875 346.5594 307.04688 346.73126Q306.39062 346.825 306.125 346.95Q305.85938 347.0594 305.70312 347.27814Q305.5625 347.4969 305.5625 347.77814Q305.5625 348.2 305.875 348.48126Q306.20312 348.7625 306.8125 348.7625Q307.42188 348.7625 307.89062 348.4969Q308.375 348.23126 308.59375 347.7625Q308.76562 347.40314 308.76562 346.71564L308.76562 346.325ZM315.82812 349.45L315.82812 348.66876Q315.23438 349.59064 314.09375 349.59064Q313.34375 349.59064 312.71875 349.1844Q312.09375 348.7625 311.75 348.02814Q311.40625 347.29376 311.40625 346.34064Q311.40625 345.41876 311.71875 344.65314Q312.03125 343.8875 312.65625 343.4969Q313.28125 343.09064 314.04688 343.09064Q314.60938 343.09064 315.04688 343.325Q315.48438 343.5594 315.76562 343.9344L315.76562 340.85626L316.8125 340.85626L316.8125 349.45L315.82812 349.45ZM312.5 346.34064Q312.5 347.54376 313.0 348.1375Q313.5 348.71564 314.1875 348.71564Q314.875 348.71564 315.35938 348.15314Q315.84375 347.59064 315.84375 346.4344Q315.84375 345.15314 315.34375 344.5594Q314.85938 343.96564 314.14062 343.96564Q313.4375 343.96564 312.96875 344.54376Q312.5 345.10626 312.5 346.34064ZM323.04688 347.45L324.14062 347.575Q323.89062 348.52814 323.1875 349.0594Q322.48438 349.59064 321.40625 349.59064Q320.04688 349.59064 319.23438 348.7469Q318.4375 347.90314 318.4375 346.3875Q318.4375 344.825 319.25 343.96564Q320.0625 343.09064 321.34375 343.09064Q322.59375 343.09064 323.375 343.9344Q324.17188 344.77814 324.17188 346.325Q324.17188 346.41876 324.17188 346.60626L319.53125 346.60626Q319.59375 347.6375 320.10938 348.1844Q320.625 348.71564 321.40625 348.71564Q321.98438 348.71564 322.39062 348.41876Q322.8125 348.10626 323.04688 347.45ZM319.59375 345.7469L323.0625 345.7469Q323.0 344.95 322.67188 344.5594Q322.15625 343.95 321.35938 343.95Q320.625 343.95 320.125 344.4344Q319.64062 344.91876 319.59375 345.7469ZM329.82812 349.45L329.82812 348.66876Q329.23438 349.59064 328.09375 349.59064Q327.34375 349.59064 326.71875 349.1844Q326.09375 348.7625 325.75 348.02814Q325.40625 347.29376 325.40625 346.34064Q325.40625 345.41876 325.71875 344.65314Q326.03125 343.8875 326.65625 343.4969Q327.28125 343.09064 328.04688 343.09064Q328.60938 343.09064 329.04688 343.325Q329.48438 343.5594 329.76562 343.9344L329.76562 340.85626L330.8125 340.85626L330.8125 349.45L329.82812 349.45ZM326.5 346.34064Q326.5 347.54376 327.0 348.1375Q327.5 348.71564 328.1875 348.71564Q328.875 348.71564 329.35938 348.15314Q329.84375 347.59064 329.84375 346.4344Q329.84375 345.15314 329.34375 344.5594Q328.85938 343.96564 328.14062 343.96564Q327.4375 343.96564 326.96875 344.54376Q326.5 345.10626 326.5 346.34064ZM337.8125 351.98126Q336.9375 350.8719 336.32812 349.40314Q335.73438 347.91876 335.73438 346.34064Q335.73438 344.95 336.17188 343.66876Q336.70312 342.1844 337.8125 340.71564L338.5625 340.71564Q337.85938 341.9344 337.625 342.45Q337.26562 343.2625 337.0625 344.1375Q336.8125 345.23126 336.8125 346.34064Q336.8125 349.16876 338.5625 351.98126L337.8125 351.98126ZM339.78125 349.45L339.78125 343.23126L340.73438 343.23126L340.73438 344.16876Q341.09375 343.5125 341.39062 343.3094Q341.70312 343.09064 342.07812 343.09064Q342.60938 343.09064 343.15625 343.41876L342.79688 344.40314Q342.40625 344.16876 342.03125 344.16876Q341.67188 344.16876 341.39062 344.3875Q341.125 344.59064 341.01562 344.96564Q340.82812 345.52814 340.82812 346.1844L340.82812 349.45L339.78125 349.45ZM347.85938 348.6844Q347.26562 349.1844 346.71875 349.3875Q346.1875 349.59064 345.5625 349.59064Q344.53125 349.59064 343.98438 349.09064Q343.4375 348.59064 343.4375 347.8094Q343.4375 347.35626 343.64062 346.98126Q343.84375 346.59064 344.1875 346.3719Q344.53125 346.1375 344.95312 346.02814Q345.25 345.9344 345.89062 345.85626Q347.15625 345.71564 347.76562 345.4969Q347.76562 345.27814 347.76562 345.23126Q347.76562 344.575 347.46875 344.3094Q347.0625 343.96564 346.26562 343.96564Q345.53125 343.96564 345.17188 344.23126Q344.8125 344.48126 344.64062 345.1375L343.60938 344.9969Q343.75 344.34064 344.07812 343.9344Q344.40625 343.52814 345.01562 343.3094Q345.625 343.09064 346.42188 343.09064Q347.21875 343.09064 347.71875 343.27814Q348.21875 343.46564 348.45312 343.7469Q348.6875 344.02814 348.78125 344.46564Q348.82812 344.73126 348.82812 345.4344L348.82812 346.84064Q348.82812 348.3094 348.89062 348.7Q348.96875 349.09064 349.17188 349.45L348.0625 349.45Q347.90625 349.1219 347.85938 348.6844ZM347.76562 346.325Q347.1875 346.5594 346.04688 346.73126Q345.39062 346.825 345.125 346.95Q344.85938 347.0594 344.70312 347.27814Q344.5625 347.4969 344.5625 347.77814Q344.5625 348.2 344.875 348.48126Q345.20312 348.7625 345.8125 348.7625Q346.42188 348.7625 346.89062 348.4969Q347.375 348.23126 347.59375 347.7625Q347.76562 347.40314 347.76562 346.71564L347.76562 346.325ZM350.75 351.84064L350.625 350.85626Q350.96875 350.95 351.23438 350.95Q351.57812 350.95 351.78125 350.825Q352.0 350.71564 352.14062 350.5125Q352.23438 350.34064 352.46875 349.71564Q352.48438 349.6375 352.5625 349.46564L350.1875 343.23126L351.32812 343.23126L352.625 346.825Q352.875 347.5125 353.07812 348.27814Q353.26562 347.54376 353.51562 346.85626L354.84375 343.23126L355.89062 343.23126L353.53125 349.5594Q353.14062 350.575 352.9375 350.96564Q352.65625 351.4969 352.28125 351.73126Q351.92188 351.98126 351.42188 351.98126Q351.125 351.98126 350.75 351.84064ZM356.40625 346.34064Q356.40625 344.60626 357.35938 343.77814Q358.15625 343.09064 359.3125 343.09064Q360.59375 343.09064 361.40625 343.9344Q362.23438 344.7625 362.23438 346.2469Q362.23438 347.45 361.875 348.1375Q361.51562 348.825 360.8125 349.21564Q360.125 349.59064 359.3125 349.59064Q358.01562 349.59064 357.20312 348.7625Q356.40625 347.91876 356.40625 346.34064ZM357.48438 346.34064Q357.48438 347.52814 358.0 348.1219Q358.53125 348.71564 359.3125 348.71564Q360.10938 348.71564 360.625 348.1219Q361.14062 347.52814 361.14062 346.3094Q361.14062 345.15314 360.60938 344.5594Q360.09375 343.96564 359.3125 343.96564Q358.53125 343.96564 358.0 344.5594Q357.48438 345.1375 357.48438 346.34064ZM363.79688 349.45L363.79688 343.23126L364.73438 343.23126L364.73438 344.10626Q365.42188 343.09064 366.71875 343.09064Q367.28125 343.09064 367.75 343.29376Q368.23438 343.4969 368.46875 343.825Q368.70312 344.15314 368.79688 344.59064Q368.84375 344.8875 368.84375 345.6219L368.84375 349.45L367.79688 349.45L367.79688 345.66876Q367.79688 345.0125 367.67188 344.7Q367.54688 344.3875 367.23438 344.2Q366.92188 343.9969 366.5 343.9969Q365.82812 343.9969 365.32812 344.4344Q364.84375 344.85626 364.84375 346.04376L364.84375 349.45L363.79688 349.45ZM371.48438 351.98126L370.73438 351.98126Q372.48438 349.16876 372.48438 346.34064Q372.48438 345.2469 372.23438 344.15314Q372.03125 343.27814 371.67188 342.46564Q371.4375 341.95 370.73438 340.71564L371.48438 340.71564Q372.57812 342.1844 373.10938 343.66876Q373.5625 344.95 373.5625 346.34064Q373.5625 347.91876 372.95312 349.40314Q372.34375 350.8719 371.48438 351.98126Z" fill-rule="nonzero"/><path fill="#000000" d="M409.76703 349.45L409.76703 343.23126L410.70453 343.23126L410.70453 344.10626Q411.0014 343.6375 411.48578 343.3719Q411.97015 343.09064 412.59515 343.09064Q413.28265 343.09064 413.72015 343.3719Q414.17328 343.65314 414.34515 344.16876Q415.09515 343.09064 416.26703 343.09064Q417.20453 343.09064 417.6889 343.60626Q418.1889 344.10626 418.1889 345.1844L418.1889 349.45L417.14203 349.45L417.14203 345.52814Q417.14203 344.90314 417.03265 344.6219Q416.9389 344.34064 416.67328 344.16876Q416.40765 343.9969 416.03265 343.9969Q415.3764 343.9969 414.9389 344.4344Q414.51703 344.8719 414.51703 345.84064L414.51703 349.45L413.45453 349.45L413.45453 345.40314Q413.45453 344.7 413.1889 344.35626Q412.9389 343.9969 412.36078 343.9969Q411.90765 343.9969 411.53265 344.23126Q411.15765 344.46564 410.98578 344.91876Q410.8139 345.3719 410.8139 346.21564L410.8139 349.45L409.76703 349.45ZM423.84515 349.45L423.84515 348.52814Q423.11078 349.59064 421.86078 349.59064Q421.3139 349.59064 420.82953 349.3875Q420.36078 349.16876 420.1264 348.85626Q419.89203 348.52814 419.79828 348.0594Q419.73578 347.7625 419.73578 347.075L419.73578 343.23126L420.79828 343.23126L420.79828 346.6844Q420.79828 347.4969 420.86078 347.79376Q420.95453 348.2 421.26703 348.45Q421.59515 348.6844 422.07953 348.6844Q422.54828 348.6844 422.95453 348.45Q423.3764 348.2 423.54828 347.77814Q423.73578 347.35626 423.73578 346.5594L423.73578 343.23126L424.78265 343.23126L424.78265 349.45L423.84515 349.45ZM426.73578 349.45L426.73578 340.85626L427.79828 340.85626L427.79828 349.45L426.73578 349.45ZM432.0639 348.5125L432.22015 349.4344Q431.76703 349.52814 431.42328 349.52814Q430.84515 349.52814 430.53265 349.35626Q430.22015 349.16876 430.07953 348.8719Q429.95453 348.575 429.95453 347.6219L429.95453 344.04376L429.1889 344.04376L429.1889 343.23126L429.95453 343.23126L429.95453 341.6844L431.0014 341.0594L431.0014 343.23126L432.0639 343.23126L432.0639 344.04376L431.0014 344.04376L431.0014 347.6844Q431.0014 348.1375 431.04828 348.2625Q431.11078 348.3875 431.23578 348.46564Q431.36078 348.54376 431.59515 348.54376Q431.78265 348.54376 432.0639 348.5125ZM432.76703 342.075L432.76703 340.85626L433.82953 340.85626L433.82953 342.075L432.76703 342.075ZM432.76703 349.45L432.76703 343.23126L433.82953 343.23126L433.82953 349.45L432.76703 349.45ZM435.34515 346.8719L435.34515 345.8094L438.59515 345.8094L438.59515 346.8719L435.34515 346.8719ZM442.0639 348.5125L442.22015 349.4344Q441.76703 349.52814 441.42328 349.52814Q440.84515 349.52814 440.53265 349.35626Q440.22015 349.16876 440.07953 348.8719Q439.95453 348.575 439.95453 347.6219L439.95453 344.04376L439.1889 344.04376L439.1889 343.23126L439.95453 343.23126L439.95453 341.6844L441.0014 341.0594L441.0014 343.23126L442.0639 343.23126L442.0639 344.04376L441.0014 344.04376L441.0014 347.6844Q441.0014 348.1375 441.04828 348.2625Q441.11078 348.3875 441.23578 348.46564Q441.36078 348.54376 441.59515 348.54376Q441.78265 348.54376 442.0639 348.5125ZM442.76703 349.45L442.76703 340.85626L443.8139 340.85626L443.8139 343.9344Q444.54828 343.09064 445.67328 343.09064Q446.3764 343.09064 446.8764 343.3719Q447.39203 343.6375 447.61078 344.1219Q447.82953 344.59064 447.82953 345.5125L447.82953 349.45L446.78265 349.45L446.78265 345.5125Q446.78265 344.71564 446.4389 344.35626Q446.09515 343.9969 445.47015 343.9969Q445.0014 343.9969 444.57953 344.2469Q444.17328 344.48126 443.98578 344.90314Q443.8139 345.3094 443.8139 346.04376L443.8139 349.45L442.76703 349.45ZM449.7514 349.45L449.7514 343.23126L450.70453 343.23126L450.70453 344.16876Q451.0639 343.5125 451.36078 343.3094Q451.67328 343.09064 452.04828 343.09064Q452.57953 343.09064 453.1264 343.41876L452.76703 344.40314Q452.3764 344.16876 452.0014 344.16876Q451.64203 344.16876 451.36078 344.3875Q451.09515 344.59064 450.98578 344.96564Q450.79828 345.52814 450.79828 346.1844L450.79828 349.45L449.7514 349.45ZM458.01703 347.45L459.11078 347.575Q458.86078 348.52814 458.15765 349.0594Q457.45453 349.59064 456.3764 349.59064Q455.01703 349.59064 454.20453 348.7469Q453.40765 347.90314 453.40765 346.3875Q453.40765 344.825 454.22015 343.96564Q455.03265 343.09064 456.3139 343.09064Q457.5639 343.09064 458.34515 343.9344Q459.14203 344.77814 459.14203 346.325Q459.14203 346.41876 459.14203 346.60626L454.5014 346.60626Q454.5639 347.6375 455.07953 348.1844Q455.59515 348.71564 456.3764 348.71564Q456.95453 348.71564 457.36078 348.41876Q457.78265 348.10626 458.01703 347.45ZM454.5639 345.7469L458.03265 345.7469Q457.97015 344.95 457.64203 344.5594Q457.1264 343.95 456.32953 343.95Q455.59515 343.95 455.09515 344.4344Q454.61078 344.91876 454.5639 345.7469ZM464.82953 348.6844Q464.23578 349.1844 463.6889 349.3875Q463.15765 349.59064 462.53265 349.59064Q461.5014 349.59064 460.95453 349.09064Q460.40765 348.59064 460.40765 347.8094Q460.40765 347.35626 460.61078 346.98126Q460.8139 346.59064 461.15765 346.3719Q461.5014 346.1375 461.92328 346.02814Q462.22015 345.9344 462.86078 345.85626Q464.1264 345.71564 464.73578 345.4969Q464.73578 345.27814 464.73578 345.23126Q464.73578 344.575 464.4389 344.3094Q464.03265 343.96564 463.23578 343.96564Q462.5014 343.96564 462.14203 344.23126Q461.78265 344.48126 461.61078 345.1375L460.57953 344.9969Q460.72015 344.34064 461.04828 343.9344Q461.3764 343.52814 461.98578 343.3094Q462.59515 343.09064 463.39203 343.09064Q464.1889 343.09064 464.6889 343.27814Q465.1889 343.46564 465.42328 343.7469Q465.65765 344.02814 465.7514 344.46564Q465.79828 344.73126 465.79828 345.4344L465.79828 346.84064Q465.79828 348.3094 465.86078 348.7Q465.9389 349.09064 466.14203 349.45L465.03265 349.45Q464.8764 349.1219 464.82953 348.6844ZM464.73578 346.325Q464.15765 346.5594 463.01703 346.73126Q462.36078 346.825 462.09515 346.95Q461.82953 347.0594 461.67328 347.27814Q461.53265 347.4969 461.53265 347.77814Q461.53265 348.2 461.84515 348.48126Q462.17328 348.7625 462.78265 348.7625Q463.39203 348.7625 463.86078 348.4969Q464.34515 348.23126 464.5639 347.7625Q464.73578 347.40314 464.73578 346.71564L464.73578 346.325ZM471.79828 349.45L471.79828 348.66876Q471.20453 349.59064 470.0639 349.59064Q469.3139 349.59064 468.6889 349.1844Q468.0639 348.7625 467.72015 348.02814Q467.3764 347.29376 467.3764 346.34064Q467.3764 345.41876 467.6889 344.65314Q468.0014 343.8875 468.6264 343.4969Q469.2514 343.09064 470.01703 343.09064Q470.57953 343.09064 471.01703 343.325Q471.45453 343.5594 471.73578 343.9344L471.73578 340.85626L472.78265 340.85626L472.78265 349.45L471.79828 349.45ZM468.47015 346.34064Q468.47015 347.54376 468.97015 348.1375Q469.47015 348.71564 470.15765 348.71564Q470.84515 348.71564 471.32953 348.15314Q471.8139 347.59064 471.8139 346.4344Q471.8139 345.15314 471.3139 344.5594Q470.82953 343.96564 470.11078 343.96564Q469.40765 343.96564 468.9389 344.54376Q468.47015 345.10626 468.47015 346.34064ZM479.01703 347.45L480.11078 347.575Q479.86078 348.52814 479.15765 349.0594Q478.45453 349.59064 477.3764 349.59064Q476.01703 349.59064 475.20453 348.7469Q474.40765 347.90314 474.40765 346.3875Q474.40765 344.825 475.22015 343.96564Q476.03265 343.09064 477.3139 343.09064Q478.5639 343.09064 479.34515 343.9344Q480.14203 344.77814 480.14203 346.325Q480.14203 346.41876 480.14203 346.60626L475.5014 346.60626Q475.5639 347.6375 476.07953 348.1844Q476.59515 348.71564 477.3764 348.71564Q477.95453 348.71564 478.36078 348.41876Q478.78265 348.10626 479.01703 347.45ZM475.5639 345.7469L479.03265 345.7469Q478.97015 344.95 478.64203 344.5594Q478.1264 343.95 477.32953 343.95Q476.59515 343.95 476.09515 344.4344Q475.61078 344.91876 475.5639 345.7469ZM485.79828 349.45L485.79828 348.66876Q485.20453 349.59064 484.0639 349.59064Q483.3139 349.59064 482.6889 349.1844Q482.0639 348.7625 481.72015 348.02814Q481.3764 347.29376 481.3764 346.34064Q481.3764 345.41876 481.6889 344.65314Q482.0014 343.8875 482.6264 343.4969Q483.2514 343.09064 484.01703 343.09064Q484.57953 343.09064 485.01703 343.325Q485.45453 343.5594 485.73578 343.9344L485.73578 340.85626L486.78265 340.85626L486.78265 349.45L485.79828 349.45ZM482.47015 346.34064Q482.47015 347.54376 482.97015 348.1375Q483.47015 348.71564 484.15765 348.71564Q484.84515 348.71564 485.32953 348.15314Q485.8139 347.59064 485.8139 346.4344Q485.8139 345.15314 485.3139 344.5594Q484.82953 343.96564 484.11078 343.96564Q483.40765 343.96564 482.9389 344.54376Q482.47015 345.10626 482.47015 346.34064ZM493.78265 351.98126Q492.90765 350.8719 492.29828 349.40314Q491.70453 347.91876 491.70453 346.34064Q491.70453 344.95 492.14203 343.66876Q492.67328 342.1844 493.78265 340.71564L494.53265 340.71564Q493.82953 341.9344 493.59515 342.45Q493.23578 343.2625 493.03265 344.1375Q492.78265 345.23126 492.78265 346.34064Q492.78265 349.16876 494.53265 351.98126L493.78265 351.98126ZM499.82953 347.16876L500.86078 347.3094Q500.6889 348.3719 499.98578 348.98126Q499.28265 349.59064 498.26703 349.59064Q496.98578 349.59064 496.20453 348.7625Q495.4389 347.91876 495.4389 346.35626Q495.4389 345.35626 495.76703 344.60626Q496.11078 343.84064 496.78265 343.46564Q497.47015 343.09064 498.28265 343.09064Q499.28265 343.09064 499.92328 343.60626Q500.57953 344.10626 500.76703 345.0594L499.73578 345.21564Q499.59515 344.59064 499.22015 344.27814Q498.84515 343.95 498.3139 343.95Q497.51703 343.95 497.01703 344.52814Q496.51703 345.09064 496.51703 346.325Q496.51703 347.59064 497.0014 348.15314Q497.48578 348.71564 498.2514 348.71564Q498.8764 348.71564 499.28265 348.34064Q499.70453 347.96564 499.82953 347.16876ZM505.84515 349.45L505.84515 348.52814Q505.11078 349.59064 503.86078 349.59064Q503.3139 349.59064 502.82953 349.3875Q502.36078 349.16876 502.1264 348.85626Q501.89203 348.52814 501.79828 348.0594Q501.73578 347.7625 501.73578 347.075L501.73578 343.23126L502.79828 343.23126L502.79828 346.6844Q502.79828 347.4969 502.86078 347.79376Q502.95453 348.2 503.26703 348.45Q503.59515 348.6844 504.07953 348.6844Q504.54828 348.6844 504.95453 348.45Q505.3764 348.2 505.54828 347.77814Q505.73578 347.35626 505.73578 346.5594L505.73578 343.23126L506.78265 343.23126L506.78265 349.45L505.84515 349.45ZM508.34515 347.59064L509.3764 347.4344Q509.47015 348.0594 509.86078 348.3875Q510.26703 348.71564 511.0014 348.71564Q511.72015 348.71564 512.0639 348.4344Q512.4233 348.1375 512.4233 347.73126Q512.4233 347.3719 512.1108 347.16876Q511.89203 347.02814 511.03265 346.8094Q509.8764 346.5125 509.42328 346.3094Q508.98578 346.09064 508.7514 345.71564Q508.51703 345.34064 508.51703 344.8719Q508.51703 344.46564 508.70453 344.10626Q508.89203 343.7469 509.22015 343.5125Q509.47015 343.34064 509.89203 343.21564Q510.3139 343.09064 510.8139 343.09064Q511.53265 343.09064 512.0795 343.3094Q512.642 343.5125 512.90765 343.8719Q513.1733 344.23126 513.267 344.825L512.2358 344.96564Q512.1733 344.4969 511.82953 344.23126Q511.5014 343.95 510.8764 343.95Q510.15765 343.95 509.84515 344.2Q509.53265 344.4344 509.53265 344.7625Q509.53265 344.96564 509.65765 345.1219Q509.79828 345.29376 510.0639 345.40314Q510.22015 345.46564 511.0014 345.66876Q512.1264 345.98126 512.5639 346.16876Q513.0014 346.35626 513.2514 346.71564Q513.5014 347.075 513.5014 347.6219Q513.5014 348.15314 513.1889 348.6219Q512.892 349.075 512.3139 349.34064Q511.73578 349.59064 511.0014 349.59064Q509.78265 349.59064 509.14203 349.09064Q508.51703 348.575 508.34515 347.59064ZM517.0639 348.5125L517.22015 349.4344Q516.767 349.52814 516.4233 349.52814Q515.84515 349.52814 515.53265 349.35626Q515.22015 349.16876 515.0795 348.8719Q514.9545 348.575 514.9545 347.6219L514.9545 344.04376L514.1889 344.04376L514.1889 343.23126L514.9545 343.23126L514.9545 341.6844L516.0014 341.0594L516.0014 343.23126L517.0639 343.23126L517.0639 344.04376L516.0014 344.04376L516.0014 347.6844Q516.0014 348.1375 516.0483 348.2625Q516.1108 348.3875 516.2358 348.46564Q516.3608 348.54376 516.59515 348.54376Q516.78265 348.54376 517.0639 348.5125ZM517.3764 346.34064Q517.3764 344.60626 518.3295 343.77814Q519.1264 343.09064 520.28265 343.09064Q521.5639 343.09064 522.3764 343.9344Q523.2045 344.7625 523.2045 346.2469Q523.2045 347.45 522.84515 348.1375Q522.4858 348.825 521.78265 349.21564Q521.09515 349.59064 520.28265 349.59064Q518.9858 349.59064 518.1733 348.7625Q517.3764 347.91876 517.3764 346.34064ZM518.4545 346.34064Q518.4545 347.52814 518.97015 348.1219Q519.5014 348.71564 520.28265 348.71564Q521.0795 348.71564 521.59515 348.1219Q522.1108 347.52814 522.1108 346.3094Q522.1108 345.15314 521.5795 344.5594Q521.0639 343.96564 520.28265 343.96564Q519.5014 343.96564 518.97015 344.5594Q518.4545 345.1375 518.4545 346.34064ZM524.767 349.45L524.767 343.23126L525.7045 343.23126L525.7045 344.10626Q526.0014 343.6375 526.4858 343.3719Q526.97015 343.09064 527.59515 343.09064Q528.28265 343.09064 528.72015 343.3719Q529.1733 343.65314 529.34515 344.16876Q530.09515 343.09064 531.267 343.09064Q532.2045 343.09064 532.6889 343.60626Q533.1889 344.10626 533.1889 345.1844L533.1889 349.45L532.142 349.45L532.142 345.52814Q532.142 344.90314 532.03265 344.6219Q531.9389 344.34064 531.6733 344.16876Q531.40765 343.9969 531.03265 343.9969Q530.3764 343.9969 529.9389 344.4344Q529.517 344.8719 529.517 345.84064L529.517 349.45L528.4545 349.45L528.4545 345.40314Q528.4545 344.7 528.1889 344.35626Q527.9389 343.9969 527.3608 343.9969Q526.90765 343.9969 526.53265 344.23126Q526.15765 344.46564 525.9858 344.91876Q525.8139 345.3719 525.8139 346.21564L525.8139 349.45L524.767 349.45ZM535.4545 351.98126L534.7045 351.98126Q536.4545 349.16876 536.4545 346.34064Q536.4545 345.2469 536.2045 344.15314Q536.0014 343.27814 535.642 342.46564Q535.40765 341.95 534.7045 340.71564L535.4545 340.71564Q536.5483 342.1844 537.0795 343.66876Q537.53265 344.95 537.53265 346.34064Q537.53265 347.91876 536.9233 349.40314Q536.3139 350.8719 535.4545 351.98126Z" fill-rule="nonzero"/></svg>