<svg xmlns="http://www.w3.org/2000/svg" width="600" height="371" fill="none" stroke-linecap="square" stroke-miterlimit="10" viewBox="0 0 600 371"><path fill="#fff" d="M0 0h600v371H0z"/><path stroke="#333" stroke-linecap="butt" d="M45.5 332.5h536"/><path stroke="#ccc" stroke-linecap="butt" d="M45.5 271.5h536m-536-62h536m-536-61h536m-536-62h536m-536-61h536"/><clipPath id="id_0"><path d="M45.55 25.55h535.9v306.9H45.55z"/></clipPath><path stroke="#4285f4" stroke-linecap="butt" stroke-width="2" d="M199.479 59.923v193.96" clip-path="url(#id_0)"/><path stroke="#4285f4" stroke-linecap="butt" stroke-width="2" d="M199.479 293.167V227.49" clip-path="url(#id_0)"/><path fill="#4285f4" d="M124.365 226.49h150.228v28.394H124.365z" clip-path="url(#id_0)"/><path stroke="#4285f4" stroke-linecap="butt" stroke-width="2" d="M427.521 99.82v159.588" clip-path="url(#id_0)"/><path stroke="#4285f4" stroke-linecap="butt" stroke-width="2" d="M427.521 301.146v-69.36" clip-path="url(#id_0)"/><path fill="#4285f4" d="M352.407 230.787h150.228v29.62H352.407z" clip-path="url(#id_0)"/><path fill="#000" d="M23.05 332.216q0-1.532.313-2.454.312-.937.921-1.437.625-.5 1.563-.5.687 0 1.203.281.531.281.875.813.344.515.531 1.265t.188 2.032q0 1.515-.313 2.437-.297.922-.922 1.438-.609.5-1.562.5-1.235 0-1.953-.891-.844-1.062-.844-3.484m1.078 0q0 2.109.5 2.812t1.219.703q.734 0 1.219-.703.5-.703.5-2.812 0-2.125-.5-2.813-.485-.703-1.235-.703-.718 0-1.156.61-.547.78-.547 2.906m6.516 4.234v-1.203h1.203v1.203zm2.406-4.234q0-1.532.313-2.454.312-.937.921-1.437.625-.5 1.563-.5.687 0 1.203.281.531.281.875.813.344.515.531 1.265t.188 2.032q0 1.515-.313 2.437-.297.922-.922 1.438-.609.5-1.562.5-1.235 0-1.953-.891-.844-1.062-.844-3.484m1.078 0q0 2.109.5 2.812t1.219.703q.734 0 1.219-.703.5-.703.5-2.812 0-2.125-.5-2.813-.485-.703-1.235-.703-.719 0-1.156.61-.547.78-.547 2.906m-11.078-61.38q0-1.532.313-2.454.312-.937.921-1.437.625-.5 1.563-.5.687 0 1.203.281.531.281.875.813.344.515.531 1.265t.188 2.032q0 1.515-.313 2.437-.297.922-.922 1.438-.609.5-1.562.5-1.235 0-1.953-.891-.844-1.062-.844-3.484m1.078 0q0 2.109.5 2.812t1.219.703q.734 0 1.219-.703.5-.703.5-2.812 0-2.125-.5-2.813-.485-.703-1.235-.703-.718 0-1.156.61-.547.78-.547 2.906m6.516 4.234v-1.203h1.203v1.203zm6.375 0h-1.047v-6.719q-.39.36-1.016.735-.61.359-1.094.53v-1.015q.875-.422 1.532-1 .672-.594.953-1.156h.672zM23.05 209.456q0-1.532.313-2.453.312-.938.921-1.438.625-.5 1.563-.5.687 0 1.203.281.531.281.875.813.344.515.531 1.265t.188 2.032q0 1.515-.313 2.437-.297.922-.922 1.438-.609.5-1.562.5-1.235 0-1.953-.891-.844-1.062-.844-3.484m1.078 0q0 2.109.5 2.812t1.219.703q.734 0 1.219-.703.5-.703.5-2.812 0-2.125-.5-2.813-.485-.703-1.235-.703-.718 0-1.156.61-.547.78-.547 2.906m6.516 4.234v-1.203h1.203v1.203zm7.953-1.016v1.016h-5.688q0-.375.125-.734.22-.578.688-1.141.484-.562 1.39-1.297 1.407-1.156 1.891-1.828.5-.672.5-1.266 0-.625-.453-1.047-.453-.437-1.172-.437-.766 0-1.219.453t-.468 1.266l-1.079-.11q.11-1.218.829-1.843.734-.641 1.968-.641 1.235 0 1.953.688.72.687.72 1.703 0 .515-.22 1.015-.203.485-.703 1.047-.484.547-1.609 1.5-.953.797-1.234 1.094-.266.281-.438.562zM23.05 148.076q0-1.532.313-2.453.312-.938.921-1.438.625-.5 1.563-.5.687 0 1.203.281.531.281.875.813.344.515.531 1.265t.188 2.032q0 1.515-.313 2.437-.297.922-.922 1.438-.609.5-1.562.5-1.235 0-1.953-.891-.844-1.062-.844-3.484m1.078 0q0 2.109.5 2.812t1.219.703q.734 0 1.219-.703.5-.703.5-2.812 0-2.125-.5-2.813-.485-.703-1.235-.703-.718 0-1.156.61-.547.78-.547 2.906m6.516 4.234v-1.203h1.203v1.203zm2.406-2.266 1.063-.14q.171.89.609 1.297.437.39 1.062.39.75 0 1.266-.515.516-.516.516-1.282 0-.718-.485-1.187-.469-.484-1.203-.484-.297 0-.75.125l.125-.938q.11.016.172.016.672 0 1.203-.344.547-.36.547-1.094 0-.578-.39-.953-.391-.39-1.016-.39-.61 0-1.032.39-.406.39-.515 1.156l-1.063-.187q.188-1.047.875-1.625.688-.594 1.703-.594.704 0 1.297.313.594.296.907.812.312.516.312 1.11 0 .546-.297 1.015-.297.453-.875.719.75.172 1.172.734.422.547.422 1.39 0 1.126-.828 1.907-.813.781-2.063.781-1.125 0-1.875-.672-.75-.687-.859-1.75m-10-63.348q0-1.532.313-2.453.312-.938.921-1.438.625-.5 1.563-.5.687 0 1.203.281.531.282.875.813.344.515.531 1.265t.188 2.032q0 1.515-.313 2.437-.297.922-.922 1.438-.609.5-1.562.5-1.235 0-1.953-.891-.844-1.062-.844-3.484m1.078 0q0 2.109.5 2.812t1.219.703q.734 0 1.219-.703.5-.703.5-2.812 0-2.125-.5-2.813-.485-.703-1.235-.703-.718 0-1.156.61-.547.78-.547 2.906m6.516 4.234v-1.203h1.203v1.203zm5.781 0v-2.062h-3.719v-.97l3.922-5.562h.86V87.9h1.156v.969h-1.157v2.062zm0-3.031v-3.86l-2.687 3.86zM23.05 25.316q0-1.532.313-2.453.312-.938.921-1.438.625-.5 1.563-.5.687 0 1.203.281.531.282.875.813.344.515.531 1.265t.188 2.032q0 1.515-.313 2.437-.297.922-.922 1.438-.609.5-1.562.5-1.235 0-1.953-.891-.844-1.062-.844-3.484m1.078 0q0 2.109.5 2.812t1.219.703q.734 0 1.219-.703.5-.703.5-2.812 0-2.125-.5-2.813-.485-.703-1.235-.703-.718 0-1.156.61-.547.78-.547 2.906m6.516 4.234v-1.203h1.203v1.203zm2.406-2.25 1.11-.094q.124.813.562 1.219.453.406 1.094.406.75 0 1.28-.578.532-.578.532-1.515 0-.907-.516-1.422-.5-.532-1.328-.532-.5 0-.922.235-.406.234-.64.594l-.985-.125.829-4.407h4.28v1H34.91l-.453 2.313q.766-.547 1.61-.547 1.125 0 1.89.781.781.781.781 2.016 0 1.156-.671 2.015-.829 1.032-2.25 1.032-1.172 0-1.922-.657-.735-.656-.844-1.734m106.725 322.15v-6.219h.937v.875q.297-.469.781-.734.485-.281 1.11-.281.687 0 1.125.28.453.282.625.798.75-1.078 1.922-1.078.937 0 1.421.515.5.5.5 1.578v4.266h-1.046v-3.922q0-.625-.11-.906-.094-.281-.36-.453-.265-.172-.64-.172-.656 0-1.094.437-.421.438-.421 1.407v3.609h-1.063v-4.047q0-.703-.266-1.047-.25-.36-.828-.36-.453 0-.828.235t-.547.688-.172 1.297v3.234zm14.078 0v-.922q-.735 1.063-1.985 1.063-.547 0-1.03-.204-.47-.218-.704-.53-.234-.329-.328-.798-.063-.297-.063-.984v-3.844h1.063v3.453q0 .813.062 1.11.094.406.407.656.328.234.812.234.469 0 .875-.234.422-.25.594-.672.187-.422.187-1.219v-3.328h1.047v6.219zm2.89 0v-8.594h1.063v8.594zm5.328-.937.157.921q-.453.094-.797.094-.578 0-.89-.172-.313-.187-.454-.484-.125-.297-.125-1.25v-3.578h-.766v-.813h.766v-1.547l1.047-.625v2.172h1.062v.813h-1.062v3.64q0 .453.047.578.062.125.187.204t.36.078q.187 0 .468-.031m.704-6.438v-1.219h1.062v1.219zm0 7.375v-6.219h1.062v6.219zm2.578-2.578v-1.063h3.25v1.063zm6.718 1.64.157.922q-.453.094-.797.094-.578 0-.89-.172-.313-.187-.454-.484-.125-.297-.125-1.25v-3.578h-.766v-.813h.766v-1.547l1.047-.625v2.172h1.062v.813h-1.062v3.64q0 .453.047.578.062.125.187.204t.36.078q.187 0 .468-.031m.704.938v-8.594h1.046v3.078q.735-.843 1.86-.843.703 0 1.203.28.516.267.734.75.22.47.22 1.392v3.937h-1.048v-3.937q0-.797-.344-1.157t-.968-.36q-.469 0-.89.25-.407.235-.595.657-.172.406-.172 1.14v3.407zm6.984 0v-6.219h.953v.938q.36-.656.656-.86.313-.218.688-.218.531 0 1.078.328l-.36.984q-.39-.234-.765-.234-.36 0-.64.219-.266.203-.376.578-.187.562-.187 1.218v3.266zm8.266-2 1.093.125q-.25.953-.953 1.484-.703.532-1.781.532-1.36 0-2.172-.844-.797-.844-.797-2.36 0-1.562.813-2.421.812-.875 2.093-.875 1.25 0 2.032.843.797.844.797 2.391v.281h-4.641q.062 1.031.578 1.578.516.532 1.297.532.578 0 .984-.297.422-.313.657-.969m-3.454-1.703h3.47q-.063-.797-.391-1.188-.516-.609-1.313-.609-.734 0-1.234.484-.485.485-.532 1.313m10.266 2.937q-.594.5-1.14.703-.532.204-1.157.204-1.031 0-1.578-.5t-.547-1.282q0-.453.203-.828.203-.39.547-.61.344-.233.766-.343.297-.094.937-.172 1.266-.14 1.875-.36v-.265q0-.656-.297-.922-.406-.343-1.203-.343-.734 0-1.093.265-.36.25-.532.906l-1.03-.14q.14-.656.468-1.063t.937-.625q.61-.218 1.407-.218.796 0 1.296.187.5.188.735.469t.328.719q.047.265.047.968v1.407q0 1.468.062 1.859.078.39.282.75h-1.11q-.156-.328-.203-.766m-.094-2.359q-.578.234-1.718.406-.657.094-.922.219-.266.11-.422.328-.14.219-.14.5 0 .422.312.703.328.281.937.281.61 0 1.078-.265.485-.266.703-.735.172-.359.172-1.046zm7.063 3.125v-.781q-.594.922-1.735.922-.75 0-1.375-.407-.625-.422-.968-1.156-.344-.734-.344-1.687 0-.922.312-1.688.313-.766.938-1.156.625-.406 1.39-.406.563 0 1 .234t.72.61v-3.079h1.046v8.594zm-3.328-3.11q0 1.204.5 1.798.5.578 1.187.578t1.172-.563.484-1.719q0-1.28-.5-1.875-.484-.593-1.203-.593-.703 0-1.172.578-.468.562-.468 1.797m10.547 1.11 1.093.125q-.25.953-.953 1.484-.703.532-1.781.532-1.36 0-2.172-.844-.797-.844-.797-2.36 0-1.562.813-2.421.812-.875 2.093-.875 1.25 0 2.032.843.797.844.797 2.391v.281h-4.641q.062 1.031.578 1.578.516.532 1.297.532.578 0 .984-.297.422-.313.657-.969m-3.454-1.703h3.47q-.063-.797-.391-1.188-.516-.609-1.313-.609-.734 0-1.234.484-.485.485-.532 1.313m10.235 3.703v-.781q-.594.922-1.735.922-.75 0-1.375-.407-.625-.422-.968-1.156-.344-.734-.344-1.687 0-.922.312-1.688.313-.766.938-1.156.625-.406 1.39-.406.563 0 1 .234t.72.61v-3.079h1.046v8.594zm-3.328-3.11q0 1.204.5 1.798.5.578 1.187.578t1.172-.563.484-1.719q0-1.28-.5-1.875-.484-.593-1.203-.593-.703 0-1.172.578-.468.562-.468 1.797m11.312 5.641q-.875-1.11-1.484-2.578-.594-1.484-.594-3.062 0-1.391.438-2.672.53-1.485 1.64-2.953h.75q-.703 1.218-.937 1.734-.36.813-.563 1.688-.25 1.093-.25 2.203 0 2.828 1.75 5.64zm1.969-2.531v-6.219h.953v.938q.36-.656.656-.86.313-.218.688-.218.531 0 1.078.328l-.36.984q-.39-.234-.765-.234-.36 0-.64.219-.266.203-.376.578-.187.562-.187 1.218v3.266zm8.078-.766q-.594.5-1.14.703-.532.204-1.157.204-1.031 0-1.578-.5t-.547-1.282q0-.453.203-.828.203-.39.547-.61.344-.233.766-.343.297-.094.937-.172 1.266-.14 1.875-.36v-.265q0-.656-.297-.922-.406-.343-1.203-.343-.734 0-1.093.265-.36.25-.532.906l-1.03-.14q.14-.656.468-1.063t.937-.625q.61-.218 1.407-.218.796 0 1.296.187.5.188.735.469t.328.719q.047.265.047.968v1.407q0 1.468.062 1.859.078.39.282.75h-1.11q-.156-.328-.203-.766m-.094-2.359q-.578.234-1.718.406-.657.094-.922.219-.266.11-.422.328-.14.219-.14.5 0 .422.312.703.328.281.937.281.61 0 1.078-.265.485-.266.703-.735.172-.359.172-1.046zm2.985 5.516-.125-.985q.343.094.61.094.343 0 .546-.125.219-.11.36-.312.093-.172.327-.797.016-.079.094-.25l-2.375-6.235h1.14l1.298 3.594q.25.688.453 1.453.187-.734.437-1.422l1.328-3.625h1.047l-2.359 6.328q-.39 1.016-.594 1.407-.281.53-.656.765-.36.25-.86.25-.296 0-.671-.14m5.656-5.5q0-1.735.953-2.563.797-.687 1.953-.687 1.281 0 2.094.843.828.828.828 2.313 0 1.203-.36 1.89-.359.688-1.062 1.079-.687.375-1.5.375-1.297 0-2.11-.829-.796-.843-.796-2.421m1.078 0q0 1.187.516 1.78.531.595 1.312.595.797 0 1.313-.594t.515-1.813q0-1.156-.53-1.75-.517-.593-1.298-.593t-1.312.593q-.516.578-.516 1.782m6.313 3.109v-6.219h.937v.875q.688-1.015 1.984-1.015.563 0 1.032.203.484.203.718.531.235.328.329.766.046.296.046 1.03v3.829h-1.046v-3.781q0-.656-.125-.969t-.438-.5q-.312-.203-.734-.203-.672 0-1.172.437-.485.422-.485 1.61v3.406zm7.687 2.531h-.75q1.75-2.812 1.75-5.64 0-1.094-.25-2.188-.203-.875-.562-1.687-.235-.516-.938-1.75h.75q1.094 1.468 1.625 2.953.453 1.281.453 2.672 0 1.578-.61 3.062-.609 1.469-1.468 2.578m106.355-2.534v-6.219h.938v.875q.297-.469.78-.734.485-.281 1.11-.281.688 0 1.125.28.453.282.625.798.75-1.078 1.922-1.078.938 0 1.422.515.5.5.5 1.578v4.266h-1.047v-3.922q0-.625-.11-.906-.093-.281-.359-.453-.265-.172-.64-.172-.656 0-1.094.437-.422.438-.422 1.407v3.609h-1.062v-4.047q0-.703-.266-1.047-.25-.36-.828-.36-.453 0-.828.235t-.547.688-.172 1.297v3.234zm14.078 0v-.922q-.734 1.063-1.984 1.063-.547 0-1.031-.204-.47-.218-.703-.53-.235-.329-.329-.798-.062-.297-.062-.984v-3.844h1.062v3.453q0 .813.063 1.11.094.406.406.656.328.234.813.234.468 0 .875-.234.422-.25.593-.672.188-.422.188-1.219v-3.328h1.047v6.219zm2.89 0v-8.594h1.063v8.594zm5.329-.937.156.921q-.453.094-.797.094-.578 0-.89-.172-.313-.187-.453-.484-.125-.297-.125-1.25v-3.578h-.766v-.813h.766v-1.547l1.047-.625v2.172h1.062v.813h-1.062v3.64q0 .453.046.578.063.125.188.204t.36.078q.187 0 .468-.031m.703-6.438v-1.219h1.063v1.219zm0 7.375v-6.219h1.063v6.219zm2.578-2.578v-1.063h3.25v1.063zm6.719 1.64.156.922q-.453.094-.797.094-.578 0-.89-.172-.313-.187-.453-.484-.125-.297-.125-1.25v-3.578h-.766v-.813h.766v-1.547l1.047-.625v2.172h1.062v.813h-1.062v3.64q0 .453.046.578.063.125.188.204t.36.078q.187 0 .468-.031m.703.938v-8.594h1.047v3.078q.734-.843 1.86-.843.703 0 1.203.28.515.267.734.75.219.47.219 1.392v3.937h-1.047v-3.937q0-.797-.344-1.157t-.969-.36q-.468 0-.89.25-.407.235-.594.657-.172.406-.172 1.14v3.407zm6.985 0v-6.219h.953v.938q.359-.656.656-.86.312-.218.687-.218.532 0 1.079.328l-.36.984q-.39-.234-.765-.234-.36 0-.641.219-.266.203-.375.578-.188.562-.188 1.218v3.266zm8.265-2 1.094.125q-.25.953-.953 1.484-.703.532-1.781.532-1.36 0-2.172-.844-.797-.844-.797-2.36 0-1.562.812-2.421.813-.875 2.094-.875 1.25 0 2.031.843.797.844.797 2.391v.281h-4.64q.062 1.031.578 1.578.515.532 1.297.532.578 0 .984-.297.422-.313.656-.969m-3.453-1.703h3.469q-.063-.797-.39-1.188-.516-.609-1.313-.609-.735 0-1.235.484-.484.485-.531 1.313m10.266 2.937q-.594.5-1.141.703-.531.204-1.156.204-1.031 0-1.578-.5t-.547-1.282q0-.453.203-.828.203-.39.547-.61.344-.233.765-.343.297-.094.938-.172 1.266-.14 1.875-.36v-.265q0-.656-.297-.922-.406-.343-1.203-.343-.734 0-1.094.265-.36.25-.531.906l-1.031-.14q.14-.656.468-1.063.329-.406.938-.625.61-.218 1.406-.218.797 0 1.297.187.5.188.734.469.235.281.329.719.046.265.046.968v1.407q0 1.468.063 1.859.078.39.281.75h-1.11q-.155-.328-.202-.766m-.094-2.359q-.578.234-1.719.406-.656.094-.922.219-.265.11-.422.328-.14.219-.14.5 0 .422.312.703.328.281.938.281t1.078-.265q.484-.266.703-.735.172-.359.172-1.046zm7.062 3.125v-.781q-.593.922-1.734.922-.75 0-1.375-.407-.625-.422-.969-1.156t-.343-1.687q0-.922.312-1.688.313-.766.938-1.156.625-.406 1.39-.406.563 0 1 .234t.719.61v-3.079h1.047v8.594zm-3.328-3.11q0 1.204.5 1.798.5.578 1.188.578t1.172-.563.484-1.719q0-1.28-.5-1.875-.484-.593-1.203-.593-.703 0-1.172.578-.469.562-.469 1.797m10.547 1.11 1.094.125q-.25.953-.953 1.484-.703.532-1.781.532-1.36 0-2.172-.844-.797-.844-.797-2.36 0-1.562.812-2.421.813-.875 2.094-.875 1.25 0 2.031.843.797.844.797 2.391v.281h-4.64q.062 1.031.578 1.578.515.532 1.297.532.578 0 .984-.297.422-.313.656-.969m-3.453-1.703h3.469q-.063-.797-.39-1.188-.516-.609-1.313-.609-.735 0-1.235.484-.484.485-.531 1.313m10.234 3.703v-.781q-.593.922-1.734.922-.75 0-1.375-.407-.625-.422-.969-1.156t-.343-1.687q0-.922.312-1.688.313-.766.938-1.156.625-.406 1.39-.406.563 0 1 .234t.719.61v-3.079h1.047v8.594zm-3.328-3.11q0 1.204.5 1.798.5.578 1.188.578t1.172-.563.484-1.719q0-1.28-.5-1.875-.484-.593-1.203-.593-.703 0-1.172.578-.469.562-.469 1.797m11.313 5.641q-.875-1.11-1.485-2.578-.593-1.484-.593-3.062 0-1.391.437-2.672.531-1.485 1.64-2.953h.75q-.702 1.218-.937 1.734-.36.813-.562 1.688-.25 1.093-.25 2.203 0 2.828 1.75 5.64zm6.047-4.812 1.03.14q-.171 1.063-.874 1.672-.703.61-1.719.61-1.281 0-2.062-.829-.766-.843-.766-2.406 0-1 .328-1.75.344-.765 1.016-1.14.687-.375 1.5-.375 1 0 1.64.515.657.5.844 1.453l-1.031.157q-.14-.625-.516-.938-.375-.328-.906-.328-.797 0-1.297.578-.5.563-.5 1.797 0 1.266.485 1.828.484.563 1.25.563.625 0 1.03-.375.423-.375.548-1.172m6.015 2.281v-.922q-.734 1.063-1.984 1.063-.547 0-1.031-.204-.47-.218-.703-.53-.235-.329-.329-.798-.062-.297-.062-.984v-3.844h1.062v3.453q0 .813.063 1.11.094.406.406.656.328.234.813.234.468 0 .875-.234.422-.25.593-.672.188-.422.188-1.219v-3.328h1.047v6.219zm2.5-1.86 1.032-.156q.093.625.484.953.406.329 1.14.329.72 0 1.063-.282.36-.297.36-.703 0-.36-.313-.562-.219-.14-1.078-.36-1.156-.297-1.61-.5-.437-.218-.671-.593t-.235-.844q0-.406.188-.766.187-.36.515-.594.25-.171.672-.296t.922-.125q.719 0 1.266.218.562.203.828.563t.36.953l-1.032.14q-.063-.468-.406-.734-.328-.281-.953-.281-.72 0-1.032.25-.312.234-.312.563 0 .203.125.359.14.172.406.281.156.063.938.266 1.125.312 1.562.5.438.187.688.547.25.359.25.906 0 .531-.313 1-.297.453-.875.719-.578.25-1.312.25-1.22 0-1.86-.5-.625-.516-.797-1.5m8.719.923.156.921q-.453.094-.797.094-.578 0-.89-.172-.313-.187-.453-.484-.125-.297-.125-1.25v-3.578h-.766v-.813h.766v-1.547l1.047-.625v2.172h1.062v.813h-1.062v3.64q0 .453.046.578.063.125.188.204t.36.078q.187 0 .468-.031m.313-2.172q0-1.735.953-2.563.797-.687 1.953-.687 1.281 0 2.094.843.828.828.828 2.313 0 1.203-.36 1.89-.36.688-1.062 1.079-.688.375-1.5.375-1.297 0-2.11-.829-.796-.843-.796-2.421m1.078 0q0 1.187.515 1.78.532.595 1.313.595.797 0 1.312-.594.516-.594.516-1.813 0-1.156-.531-1.75-.516-.593-1.297-.593t-1.313.593q-.515.578-.515 1.782m6.312 3.109v-6.219h.938v.875q.297-.469.78-.734.485-.281 1.11-.281.688 0 1.125.28.453.282.625.798.75-1.078 1.922-1.078.938 0 1.422.515.5.5.5 1.578v4.266h-1.047v-3.922q0-.625-.11-.906-.093-.281-.359-.453-.265-.172-.64-.172-.656 0-1.094.437-.422.438-.422 1.407v3.609h-1.062v-4.047q0-.703-.266-1.047-.25-.36-.828-.36-.453 0-.828.235t-.547.688-.172 1.297v3.234zm10.688 2.531h-.75q1.75-2.812 1.75-5.64 0-1.094-.25-2.188-.203-.875-.563-1.687-.234-.516-.937-1.75h.75q1.093 1.468 1.625 2.953.453 1.281.453 2.672 0 1.578-.61 3.062-.609 1.469-1.468 2.578"/></svg>