<svg xmlns="http://www.w3.org/2000/svg" width="600" height="371" fill="none" stroke-linecap="square" stroke-miterlimit="10" viewBox="0 0 600 371"><path fill="#fff" d="M0 0h600v371H0z"/><path stroke="#333" stroke-linecap="butt" d="M45.5 332.5h536"/><path stroke="#ccc" stroke-linecap="butt" d="M45.5 230.5h536m-536-103h536m-536-102h536"/><clipPath id="id_0"><path d="M45.55 25.55h535.9v306.9H45.55z"/></clipPath><path stroke="#4285f4" stroke-linecap="butt" stroke-width="2" d="M153.53 64.629v227.924" clip-path="url(#id_0)"/><path stroke="#4285f4" stroke-linecap="butt" stroke-width="2" d="M153.53 306.875v-99.64" clip-path="url(#id_0)"/><path fill="#4285f4" d="M100.54 206.235h105.98v87.318H100.54z" clip-path="url(#id_0)"/><path stroke="#4285f4" stroke-linecap="butt" stroke-width="2" d="M313.5 241.608v64.653" clip-path="url(#id_0)"/><path stroke="#4285f4" stroke-linecap="butt" stroke-width="2" d="M313.5 319.356v-21.893" clip-path="url(#id_0)"/><path fill="#4285f4" d="M260.51 296.463h105.98v10.798H260.51z" clip-path="url(#id_0)"/><path stroke="#4285f4" stroke-linecap="butt" stroke-width="2" d="M473.47 254.907v53.196" clip-path="url(#id_0)"/><path stroke="#4285f4" stroke-linecap="butt" stroke-width="2" d="M473.47 322.015v-23.12" clip-path="url(#id_0)"/><path fill="#4285f4" d="M420.48 297.896h105.98v11.207H420.48z" clip-path="url(#id_0)"/><path fill="#000" d="M23.05 332.216q0-1.532.313-2.454.312-.937.921-1.437.625-.5 1.563-.5.687 0 1.203.281.531.281.875.813.344.515.531 1.265t.188 2.032q0 1.515-.313 2.437-.297.922-.922 1.438-.609.5-1.562.5-1.235 0-1.953-.891-.844-1.062-.844-3.484m1.078 0q0 2.109.5 2.812t1.219.703q.734 0 1.219-.703.5-.703.5-2.812 0-2.125-.5-2.813-.485-.703-1.235-.703-.718 0-1.156.61-.547.78-.547 2.906m6.516 4.234v-1.203h1.203v1.203zm2.406-4.234q0-1.532.313-2.454.312-.937.921-1.437.625-.5 1.563-.5.687 0 1.203.281.531.281.875.813.344.515.531 1.265t.188 2.032q0 1.515-.313 2.437-.297.922-.922 1.438-.609.5-1.562.5-1.235 0-1.953-.891-.844-1.062-.844-3.484m1.078 0q0 2.109.5 2.812t1.219.703q.734 0 1.219-.703.5-.703.5-2.812 0-2.125-.5-2.813-.485-.703-1.235-.703-.719 0-1.156.61-.547.78-.547 2.906m-11.078-102.3q0-1.532.313-2.453.312-.938.921-1.438.625-.5 1.563-.5.687 0 1.203.281.531.281.875.813.344.515.531 1.265t.188 2.032q0 1.515-.313 2.437-.297.922-.922 1.438-.609.5-1.562.5-1.235 0-1.953-.891-.844-1.062-.844-3.484m1.078 0q0 2.109.5 2.812t1.219.703q.734 0 1.219-.703.5-.703.5-2.812 0-2.125-.5-2.813-.485-.703-1.235-.703-.718 0-1.156.61-.547.78-.547 2.906m6.516 4.234v-1.203h1.203v1.203zm2.406-2.25 1.11-.094q.124.813.562 1.219.453.406 1.094.406.75 0 1.28-.578.532-.578.532-1.516 0-.906-.516-1.421-.5-.532-1.328-.532-.5 0-.922.235-.406.234-.64.594l-.985-.125.829-4.407h4.28v1H34.91l-.453 2.313q.766-.547 1.61-.547 1.125 0 1.89.781.781.781.781 2.016 0 1.156-.671 2.015-.829 1.032-2.25 1.032-1.172 0-1.922-.657-.735-.656-.844-1.734m-6.032-100.05h-1.047v-6.719q-.39.36-1.016.735-.61.359-1.093.53v-1.015q.875-.422 1.53-1 .673-.593.954-1.156h.672zm3.625 0v-1.203h1.203v1.203zm2.406-4.234q0-1.532.313-2.453.312-.938.921-1.438.625-.5 1.563-.5.687 0 1.203.281.531.282.875.813.344.515.531 1.265t.188 2.032q0 1.515-.313 2.437-.297.922-.922 1.438-.609.5-1.562.5-1.235 0-1.953-.891-.844-1.062-.844-3.484m1.078 0q0 2.109.5 2.812t1.219.703q.734 0 1.219-.703.5-.703.5-2.812 0-2.125-.5-2.813-.485-.703-1.235-.703-.719 0-1.156.61-.547.78-.547 2.906M27.019 29.55h-1.047v-6.719q-.39.36-1.016.735-.61.359-1.093.53v-1.015q.875-.422 1.53-1 .673-.593.954-1.156h.672zm3.625 0v-1.203h1.203v1.203zm2.406-2.25 1.11-.094q.124.813.562 1.219.453.406 1.094.406.75 0 1.28-.578.532-.578.532-1.515 0-.907-.516-1.422-.5-.532-1.328-.532-.5 0-.922.235-.406.234-.64.594l-.985-.125.829-4.407h4.28v1H34.91l-.453 2.313q.766-.547 1.61-.547 1.125 0 1.89.781.781.781.781 2.016 0 1.156-.671 2.015-.829 1.032-2.25 1.032-1.172 0-1.922-.657-.735-.656-.844-1.734m77.854 320.29 1.031-.156q.094.625.484.953.407.329 1.141.329.719 0 1.063-.282.359-.297.359-.703 0-.36-.313-.562-.218-.14-1.078-.36-1.156-.297-1.609-.5-.438-.218-.672-.593t-.234-.844q0-.406.187-.766.188-.36.516-.594.25-.171.672-.296t.922-.125q.718 0 1.265.218.563.203.828.563.266.36.36.953l-1.032.14q-.062-.468-.406-.734-.328-.281-.953-.281-.719 0-1.031.25-.313.234-.313.563 0 .203.125.359.141.172.407.281.156.063.937.266 1.125.312 1.563.5.437.187.687.547.25.359.25.906 0 .531-.312 1-.297.453-.875.719-.579.25-1.313.25-1.219 0-1.86-.5-.624-.516-.796-1.5m6.422-5.515v-1.219h1.062v1.219zm0 7.375v-6.219h1.062v6.219zm3 0v-6.219h.937v.875q.688-1.015 1.985-1.015.562 0 1.03.203.485.203.72.531t.328.766q.047.296.047 1.03v3.829h-1.047v-3.781q0-.656-.125-.969t-.438-.5q-.312-.203-.734-.203-.672 0-1.172.437-.484.422-.484 1.61v3.406zm6.797.516 1.03.156q.063.469.36.687.39.297 1.063.297.734 0 1.125-.297.406-.297.547-.812.093-.328.078-1.36-.688.813-1.719.813-1.281 0-1.984-.922-.704-.937-.704-2.219 0-.89.313-1.64.328-.766.937-1.172.61-.406 1.438-.406 1.11 0 1.828.89v-.75h.969v5.375q0 1.453-.297 2.063t-.938.953q-.64.36-1.578.36-1.109 0-1.797-.5t-.671-1.516m.875-3.735q0 1.219.484 1.781.484.563 1.219.563.734 0 1.218-.562.5-.563.5-1.75 0-1.141-.515-1.72-.5-.577-1.219-.577-.703 0-1.203.578-.484.562-.484 1.687m6.296 3.219v-8.594h1.063v8.594zm7.282-2 1.093.125q-.25.953-.953 1.484-.703.532-1.78.532-1.36 0-2.173-.844-.797-.844-.797-2.36 0-1.562.813-2.421.812-.875 2.094-.875 1.25 0 2.03.843.798.844.798 2.391v.281h-4.64q.062 1.031.577 1.578.516.532 1.297.532.578 0 .984-.297.422-.313.657-.969m-3.453-1.703h3.468q-.062-.797-.39-1.188-.516-.609-1.313-.609-.734 0-1.234.484-.485.485-.531 1.313m5.78 1.125v-1.063h3.25v1.063zm6.72 1.64.156.922q-.453.094-.797.094-.578 0-.89-.172-.313-.187-.454-.484-.125-.297-.125-1.25v-3.578h-.765v-.813h.765v-1.547l1.047-.625v2.172h1.063v.813h-1.063v3.64q0 .453.047.578.062.125.187.204t.36.078q.187 0 .469-.031m.703.938v-8.594h1.047v3.078q.734-.843 1.859-.843.703 0 1.203.28.516.267.734.75.22.47.22 1.392v3.937h-1.048v-3.937q0-.797-.343-1.157t-.97-.36q-.468 0-.89.25-.406.235-.594.657-.171.406-.171 1.14v3.407zm6.984 0v-6.219h.953v.938q.36-.656.656-.86.313-.218.688-.218.531 0 1.078.328l-.36.984q-.39-.234-.765-.234-.36 0-.64.219-.266.203-.376.578-.187.562-.187 1.218v3.266zm8.266-2 1.093.125q-.25.953-.953 1.484-.703.532-1.78.532-1.36 0-2.173-.844-.797-.844-.797-2.36 0-1.562.813-2.421.812-.875 2.094-.875 1.25 0 2.03.843.798.844.798 2.391v.281h-4.64q.062 1.031.577 1.578.516.532 1.297.532.578 0 .984-.297.422-.313.657-.969m-3.453-1.703h3.468q-.062-.797-.39-1.188-.516-.609-1.313-.609-.734 0-1.234.484-.485.485-.531 1.313m10.265 2.937q-.594.5-1.14.703-.532.204-1.157.204-1.03 0-1.578-.5-.547-.5-.547-1.282 0-.453.203-.828.204-.39.547-.61.344-.233.766-.343.297-.094.937-.172 1.266-.14 1.875-.36v-.265q0-.656-.296-.922-.407-.343-1.204-.343-.734 0-1.093.265-.36.25-.532.906l-1.03-.14q.14-.656.468-1.063t.937-.625q.61-.218 1.407-.218t1.297.187.734.469.328.719q.047.265.047.968v1.407q0 1.468.062 1.859.079.39.282.75h-1.11q-.156-.328-.203-.766m-.094-2.359q-.578.234-1.718.406-.657.094-.922.219-.266.11-.422.328-.14.219-.14.5 0 .422.312.703.328.281.937.281.61 0 1.078-.265.485-.266.704-.735.171-.359.171-1.046zm7.063 3.125v-.781q-.594.922-1.734.922-.75 0-1.375-.407-.625-.422-.97-1.156-.343-.734-.343-1.687 0-.922.313-1.688.312-.766.937-1.156.625-.406 1.39-.406.563 0 1 .234t.72.61v-3.079h1.046v8.594zm-3.328-3.11q0 1.204.5 1.798.5.578 1.187.578t1.172-.563.485-1.719q0-1.28-.5-1.875-.485-.593-1.204-.593-.703 0-1.171.578-.47.562-.47 1.797m10.547 1.11 1.093.125q-.25.953-.953 1.484-.703.532-1.78.532-1.36 0-2.173-.844-.797-.844-.797-2.36 0-1.562.813-2.421.812-.875 2.094-.875 1.25 0 2.03.843.798.844.798 2.391v.281h-4.64q.062 1.031.577 1.578.516.532 1.297.532.578 0 .984-.297.422-.313.657-.969m-3.453-1.703h3.468q-.062-.797-.39-1.188-.516-.609-1.313-.609-.734 0-1.234.484-.485.485-.531 1.313m10.234 3.703v-.781q-.594.922-1.734.922-.75 0-1.375-.407-.625-.422-.97-1.156-.343-.734-.343-1.687 0-.922.313-1.688.312-.766.937-1.156.625-.406 1.39-.406.563 0 1 .234t.72.61v-3.079h1.046v8.594zm-3.328-3.11q0 1.204.5 1.798.5.578 1.187.578t1.172-.563.485-1.719q0-1.28-.5-1.875-.485-.593-1.204-.593-.703 0-1.171.578-.47.562-.47 1.797m62.769 3.106v-6.219h.937v.875q.297-.469.782-.734.484-.281 1.109-.281.688 0 1.125.28.453.282.625.798.75-1.078 1.922-1.078.937 0 1.422.515.5.5.5 1.578v4.266h-1.047v-3.922q0-.625-.11-.906-.093-.281-.359-.453-.265-.172-.64-.172-.657 0-1.094.437-.422.438-.422 1.407v3.609h-1.063v-4.047q0-.703-.265-1.047-.25-.36-.828-.36-.454 0-.829.235t-.546.688-.172 1.297v3.234zm14.078 0v-.922q-.734 1.063-1.984 1.063-.547 0-1.032-.204-.468-.218-.703-.53-.234-.329-.328-.798-.062-.297-.062-.984v-3.844h1.062v3.453q0 .813.063 1.11.093.406.406.656.328.234.812.234.47 0 .875-.234.422-.25.594-.672.188-.422.188-1.219v-3.328h1.046v6.219zm2.89 0v-8.594h1.063v8.594zm5.329-.937.156.921q-.453.094-.797.094-.578 0-.89-.172-.313-.187-.454-.484-.125-.297-.125-1.25v-3.578h-.765v-.813h.765v-1.547l1.047-.625v2.172h1.063v.813h-1.063v3.64q0 .453.047.578.063.125.188.204t.359.078q.188 0 .469-.031m.703-6.438v-1.219h1.062v1.219zm0 7.375v-6.219h1.062v6.219zm2.578-2.578v-1.063h3.25v1.063zm6.719 1.64.156.922q-.453.094-.797.094-.578 0-.89-.172-.313-.187-.454-.484-.125-.297-.125-1.25v-3.578h-.765v-.813h.765v-1.547l1.047-.625v2.172h1.063v.813h-1.063v3.64q0 .453.047.578.063.125.188.204t.359.078q.188 0 .469-.031m.703.938v-8.594h1.047v3.078q.734-.843 1.86-.843.702 0 1.202.28.516.267.735.75.218.47.218 1.392v3.937h-1.046v-3.937q0-.797-.344-1.157t-.969-.36q-.469 0-.89.25-.407.235-.594.657-.172.406-.172 1.14v3.407zm6.984 0v-6.219h.953v.938q.36-.656.657-.86.312-.218.687-.218.531 0 1.078.328l-.36.984q-.39-.234-.765-.234-.36 0-.64.219-.266.203-.375.578-.188.562-.188 1.218v3.266zm8.266-2 1.094.125q-.25.953-.954 1.484-.703.532-1.78.532-1.36 0-2.173-.844-.796-.844-.796-2.36 0-1.562.812-2.421.813-.875 2.094-.875 1.25 0 2.031.843.797.844.797 2.391v.281h-4.64q.062 1.031.577 1.578.516.532 1.297.532.578 0 .985-.297.421-.313.656-.969m-3.453-1.703h3.469q-.063-.797-.391-1.188-.516-.609-1.313-.609-.734 0-1.234.484-.484.485-.531 1.313m10.265 2.937q-.593.5-1.14.703-.531.204-1.156.204-1.032 0-1.579-.5t-.546-1.282q0-.453.203-.828.203-.39.546-.61.344-.233.766-.343.297-.094.938-.172 1.265-.14 1.875-.36v-.265q0-.656-.297-.922-.406-.343-1.203-.343-.735 0-1.094.265-.36.25-.531.906l-1.032-.14q.141-.656.47-1.063.327-.406.937-.625.609-.218 1.406-.218t1.297.187.734.469.328.719q.047.265.047.968v1.407q0 1.468.063 1.859.078.39.28.75h-1.108q-.157-.328-.204-.766m-.093-2.359q-.579.234-1.72.406-.655.094-.921.219-.266.11-.422.328-.14.219-.14.5 0 .422.312.703.328.281.938.281t1.078-.265q.484-.266.703-.735.172-.359.172-1.046zm7.062 3.125v-.781q-.594.922-1.734.922-.75 0-1.375-.407-.625-.422-.969-1.156t-.344-1.687q0-.922.313-1.688.312-.766.937-1.156.625-.406 1.39-.406.563 0 1 .234t.72.61v-3.079h1.046v8.594zm-3.328-3.11q0 1.204.5 1.798.5.578 1.188.578t1.171-.563.485-1.719q0-1.28-.5-1.875-.485-.593-1.203-.593-.704 0-1.172.578-.469.562-.469 1.797m10.547 1.11 1.094.125q-.25.953-.954 1.484-.703.532-1.78.532-1.36 0-2.173-.844-.796-.844-.796-2.36 0-1.562.812-2.421.813-.875 2.094-.875 1.25 0 2.031.843.797.844.797 2.391v.281h-4.64q.062 1.031.577 1.578.516.532 1.297.532.578 0 .985-.297.421-.313.656-.969m-3.453-1.703h3.469q-.063-.797-.391-1.188-.516-.609-1.313-.609-.734 0-1.234.484-.484.485-.531 1.313m10.234 3.703v-.781q-.594.922-1.734.922-.75 0-1.375-.407-.625-.422-.969-1.156t-.344-1.687q0-.922.313-1.688.312-.766.937-1.156.625-.406 1.39-.406.563 0 1 .234t.72.61v-3.079h1.046v8.594zm-3.328-3.11q0 1.204.5 1.798.5.578 1.188.578t1.171-.563.485-1.719q0-1.28-.5-1.875-.485-.593-1.203-.593-.704 0-1.172.578-.469.562-.469 1.797m11.313 5.641q-.875-1.11-1.485-2.578-.594-1.484-.594-3.062 0-1.391.438-2.672.531-1.485 1.64-2.953h.75q-.703 1.218-.937 1.734-.36.813-.562 1.688-.25 1.093-.25 2.203 0 2.828 1.75 5.64zm1.968-2.531v-6.219h.953v.938q.36-.656.657-.86.312-.218.687-.218.531 0 1.078.328l-.36.984q-.39-.234-.765-.234-.36 0-.64.219-.266.203-.375.578-.188.562-.188 1.218v3.266zm8.078-.766q-.593.5-1.14.703-.531.204-1.156.204-1.032 0-1.579-.5t-.546-1.282q0-.453.203-.828.203-.39.546-.61.344-.233.766-.343.297-.094.938-.172 1.265-.14 1.875-.36v-.265q0-.656-.297-.922-.406-.343-1.203-.343-.735 0-1.094.265-.36.25-.531.906l-1.032-.14q.141-.656.47-1.063.327-.406.937-.625.609-.218 1.406-.218t1.297.187.734.469.328.719q.047.265.047.968v1.407q0 1.468.063 1.859.078.39.28.75h-1.108q-.157-.328-.204-.766m-.093-2.359q-.579.234-1.72.406-.655.094-.921.219-.266.11-.422.328-.14.219-.14.5 0 .422.312.703.328.281.938.281t1.078-.265q.484-.266.703-.735.172-.359.172-1.046zm2.984 5.516-.125-.985q.344.094.61.094.343 0 .546-.125.219-.11.36-.312.093-.172.328-.797.015-.079.094-.25l-2.375-6.235h1.14l1.297 3.594q.25.688.453 1.453.188-.734.438-1.422l1.328-3.625h1.047l-2.36 6.328q-.39 1.016-.594 1.407-.28.53-.656.765-.36.25-.86.25-.296 0-.671-.14m5.656-5.5q0-1.735.953-2.563.797-.687 1.954-.687 1.28 0 2.093.843.828.828.828 2.313 0 1.203-.359 1.89-.36.688-1.062 1.079-.688.375-1.5.375-1.297 0-2.11-.829-.797-.843-.797-2.421m1.078 0q0 1.187.516 1.78.531.595 1.313.595.796 0 1.312-.594t.516-1.813q0-1.156-.532-1.75-.515-.593-1.296-.593-.782 0-1.313.593-.516.578-.516 1.782m6.313 3.109v-6.219h.937v.875q.688-1.015 1.985-1.015.562 0 1.031.203.484.203.719.531t.328.766q.047.296.047 1.03v3.829h-1.047v-3.781q0-.656-.125-.969t-.438-.5q-.312-.203-.734-.203-.672 0-1.172.437-.484.422-.484 1.61v3.406zm7.687 2.531h-.75q1.75-2.812 1.75-5.64 0-1.094-.25-2.188-.203-.875-.562-1.687-.235-.516-.938-1.75h.75q1.094 1.468 1.625 2.953.454 1.281.454 2.672 0 1.578-.61 3.062-.61 1.469-1.469 2.578m38.283-2.534v-6.219h.938v.875q.296-.469.78-.734.485-.281 1.11-.281.688 0 1.125.28.453.282.625.798.75-1.078 1.922-1.078.938 0 1.422.515.5.5.5 1.578v4.266h-1.047v-3.922q0-.625-.11-.906-.093-.281-.359-.453-.265-.172-.64-.172-.657 0-1.094.437-.422.438-.422 1.407v3.609h-1.062v-4.047q0-.703-.266-1.047-.25-.36-.828-.36-.453 0-.828.235t-.547.688-.172 1.297v3.234zm14.078 0v-.922q-.734 1.063-1.984 1.063-.547 0-1.031-.204-.47-.218-.704-.53-.234-.329-.328-.798-.062-.297-.062-.984v-3.844h1.062v3.453q0 .813.063 1.11.094.406.406.656.328.234.813.234.468 0 .875-.234.421-.25.593-.672.188-.422.188-1.219v-3.328h1.047v6.219zm2.89 0v-8.594h1.063v8.594zm5.329-.937.156.921q-.453.094-.797.094-.578 0-.89-.172-.313-.187-.453-.484-.125-.297-.125-1.25v-3.578h-.766v-.813h.766v-1.547l1.046-.625v2.172h1.063v.813H431v3.64q0 .453.047.578.063.125.188.204t.36.078q.187 0 .468-.031m.703-6.438v-1.219h1.063v1.219zm0 7.375v-6.219h1.063v6.219zm2.578-2.578v-1.063h3.25v1.063zm6.719 1.64.156.922q-.453.094-.797.094-.578 0-.89-.172-.313-.187-.453-.484-.125-.297-.125-1.25v-3.578h-.766v-.813h.766v-1.547l1.046-.625v2.172h1.063v.813H441v3.64q0 .453.047.578.063.125.188.204t.36.078q.187 0 .468-.031m.703.938v-8.594h1.047v3.078q.734-.843 1.86-.843.702 0 1.202.28.516.267.735.75.219.47.219 1.392v3.937h-1.047v-3.937q0-.797-.344-1.157t-.969-.36q-.469 0-.89.25-.407.235-.594.657-.172.406-.172 1.14v3.407zm6.984 0v-6.219h.954v.938q.359-.656.656-.86.312-.218.687-.218.532 0 1.078.328l-.359.984q-.39-.234-.766-.234-.359 0-.64.219-.266.203-.375.578-.188.562-.188 1.218v3.266zm8.266-2 1.094.125q-.25.953-.953 1.484-.703.532-1.782.532-1.359 0-2.171-.844-.797-.844-.797-2.36 0-1.562.812-2.421.813-.875 2.094-.875 1.25 0 2.031.843.797.844.797 2.391v.281h-4.64q.062 1.031.578 1.578.515.532 1.296.532.579 0 .985-.297.422-.313.656-.969m-3.453-1.703h3.469q-.063-.797-.391-1.188-.516-.609-1.312-.609-.735 0-1.235.484-.484.485-.531 1.313m10.266 2.937q-.594.5-1.141.703-.531.204-1.156.204-1.032 0-1.578-.5-.547-.5-.547-1.282 0-.453.203-.828.203-.39.547-.61.343-.233.765-.343.297-.094.938-.172 1.265-.14 1.875-.36v-.265q0-.656-.297-.922-.406-.343-1.203-.343-.735 0-1.094.265-.36.25-.531.906l-1.031-.14q.14-.656.468-1.063t.938-.625 1.406-.218 1.297.187.734.469q.235.281.328.719.047.265.047.968v1.407q0 1.468.063 1.859.078.39.281.75h-1.11q-.156-.328-.202-.766m-.094-2.359q-.578.234-1.719.406-.656.094-.922.219-.265.11-.422.328-.14.219-.14.5 0 .422.312.703.328.281.938.281t1.078-.265q.484-.266.703-.735.172-.359.172-1.046zm7.062 3.125v-.781q-.593.922-1.734.922-.75 0-1.375-.407-.625-.422-.969-1.156t-.344-1.687q0-.922.313-1.688.312-.766.937-1.156.625-.406 1.391-.406.563 0 1 .234t.719.61v-3.079h1.047v8.594zm-3.328-3.11q0 1.204.5 1.798.5.578 1.188.578t1.172-.563.484-1.719q0-1.28-.5-1.875-.484-.593-1.203-.593-.703 0-1.172.578-.469.562-.469 1.797m10.547 1.11 1.094.125q-.25.953-.953 1.484-.703.532-1.782.532-1.359 0-2.171-.844-.797-.844-.797-2.36 0-1.562.812-2.421.813-.875 2.094-.875 1.25 0 2.031.843.797.844.797 2.391v.281h-4.64q.062 1.031.578 1.578.515.532 1.296.532.579 0 .985-.297.422-.313.656-.969m-3.453-1.703h3.469q-.063-.797-.391-1.188-.516-.609-1.312-.609-.735 0-1.235.484-.484.485-.531 1.313m10.234 3.703v-.781q-.593.922-1.734.922-.75 0-1.375-.407-.625-.422-.969-1.156t-.344-1.687q0-.922.313-1.688.312-.766.937-1.156.625-.406 1.391-.406.563 0 1 .234t.719.61v-3.079h1.047v8.594zm-3.328-3.11q0 1.204.5 1.798.5.578 1.188.578t1.172-.563.484-1.719q0-1.28-.5-1.875-.484-.593-1.203-.593-.703 0-1.172.578-.469.562-.469 1.797m11.313 5.641q-.875-1.11-1.485-2.578-.593-1.484-.593-3.062 0-1.391.437-2.672.531-1.485 1.64-2.953h.75q-.702 1.218-.937 1.734-.36.813-.562 1.688-.25 1.093-.25 2.203 0 2.828 1.75 5.64zm6.047-4.812 1.03.14q-.171 1.063-.874 1.672-.703.61-1.719.61-1.281 0-2.062-.829-.766-.843-.766-2.406 0-1 .328-1.75.344-.765 1.016-1.14.687-.375 1.5-.375 1 0 1.64.515.657.5.844 1.453l-1.031.157q-.14-.625-.516-.938-.375-.328-.906-.328-.797 0-1.297.578-.5.563-.5 1.797 0 1.266.484 1.828.485.563 1.25.563.625 0 1.032-.375.422-.375.547-1.172m6.015 2.281v-.922q-.734 1.063-1.984 1.063-.547 0-1.031-.204-.47-.218-.704-.53-.234-.329-.328-.798-.062-.297-.062-.984v-3.844h1.062v3.453q0 .813.063 1.11.094.406.406.656.328.234.813.234.468 0 .875-.234.421-.25.593-.672.188-.422.188-1.219v-3.328h1.047v6.219zm2.5-1.86 1.031-.156q.094.625.485.953.406.329 1.14.329.72 0 1.063-.282.36-.297.36-.703 0-.36-.313-.562-.219-.14-1.078-.36-1.157-.297-1.61-.5-.437-.218-.672-.593-.234-.375-.234-.844 0-.406.188-.766.187-.36.515-.594.25-.171.672-.296t.922-.125q.719 0 1.266.218.562.203.828.563t.359.953l-1.031.14q-.063-.468-.406-.734-.329-.281-.954-.281-.718 0-1.03.25-.313.234-.313.563 0 .203.125.359.14.172.406.281.156.063.937.266 1.125.312 1.563.5.437.187.687.547.25.359.25.906 0 .531-.312 1-.297.453-.875.719-.578.25-1.313.25-1.218 0-1.859-.5-.625-.516-.797-1.5m8.719.923.156.921q-.453.094-.797.094-.578 0-.89-.172-.313-.187-.453-.484-.125-.297-.125-1.25v-3.578h-.766v-.813h.766v-1.547l1.046-.625v2.172h1.063v.813H516v3.64q0 .453.047.578.063.125.188.204t.36.078q.187 0 .468-.031m.312-2.172q0-1.735.954-2.563.796-.687 1.953-.687 1.28 0 2.093.843.829.828.829 2.313 0 1.203-.36 1.89-.36.688-1.062 1.079-.688.375-1.5.375-1.297 0-2.11-.829-.797-.843-.797-2.421m1.079 0q0 1.187.515 1.78.531.595 1.313.595.797 0 1.312-.594.516-.594.516-1.813 0-1.156-.531-1.75-.516-.593-1.297-.593-.782 0-1.313.593-.515.578-.515 1.782m6.312 3.109v-6.219h.938v.875q.296-.469.78-.734.485-.281 1.11-.281.688 0 1.125.28.453.282.625.798.75-1.078 1.922-1.078.938 0 1.422.515.5.5.5 1.578v4.266h-1.047v-3.922q0-.625-.11-.906-.093-.281-.359-.453-.265-.172-.64-.172-.657 0-1.094.437-.422.438-.422 1.407v3.609h-1.062v-4.047q0-.703-.266-1.047-.25-.36-.828-.36-.453 0-.828.235t-.547.688-.172 1.297v3.234zm10.688 2.531h-.75q1.75-2.812 1.75-5.64 0-1.094-.25-2.188-.204-.875-.563-1.687-.234-.516-.937-1.75h.75q1.093 1.468 1.625 2.953.453 1.281.453 2.672 0 1.578-.61 3.062-.61 1.469-1.468 2.578"/></svg>