<svg version="1.1" viewBox="0.0 0.0 600.0 371.0" fill="none" stroke="none" stroke-linecap="square" stroke-miterlimit="10" width="600" height="371" xmlns:xlink="http://www.w3.org/1999/xlink" xmlns="http://www.w3.org/2000/svg"><path fill="#ffffff" d="M0 0L600.0 0L600.0 371.0L0 371.0L0 0Z" fill-rule="nonzero"/><path stroke="#333333" stroke-width="1.0" stroke-linecap="butt" d="M45.5 332.5L581.5 332.5" fill-rule="nonzero"/><path stroke="#cccccc" stroke-width="1.0" stroke-linecap="butt" d="M45.5 271.5L581.5 271.5" fill-rule="nonzero"/><path stroke="#cccccc" stroke-width="1.0" stroke-linecap="butt" d="M45.5 209.5L581.5 209.5" fill-rule="nonzero"/><path stroke="#cccccc" stroke-width="1.0" stroke-linecap="butt" d="M45.5 148.5L581.5 148.5" fill-rule="nonzero"/><path stroke="#cccccc" stroke-width="1.0" stroke-linecap="butt" d="M45.5 86.5L581.5 86.5" fill-rule="nonzero"/><path stroke="#cccccc" stroke-width="1.0" stroke-linecap="butt" d="M45.5 25.5L581.5 25.5" fill-rule="nonzero"/><clipPath id="id_0"><path d="M45.55 25.55L581.45 25.55L581.45 332.45L45.55 332.45L45.55 25.55Z" clip-rule="nonzero"/></clipPath><path stroke="#4285f4" stroke-width="2.0" stroke-linecap="butt" clip-path="url(#id_0)" d="M199.47873 59.9228L199.47873 253.8836" fill-rule="nonzero"/><path stroke="#4285f4" stroke-width="2.0" stroke-linecap="butt" clip-path="url(#id_0)" d="M199.47873 293.1668L199.47873 227.4902" fill-rule="nonzero"/><path fill="#4285f4" clip-path="url(#id_0)" d="M124.36489 226.4902L274.59256 226.4902L274.59256 254.8836L124.36489 254.8836L124.36489 226.4902Z" fill-rule="nonzero"/><path stroke="#4285f4" stroke-width="2.0" stroke-linecap="butt" clip-path="url(#id_0)" d="M427.52127 99.8198L427.52127 259.4078" fill-rule="nonzero"/><path stroke="#4285f4" stroke-width="2.0" stroke-linecap="butt" clip-path="url(#id_0)" d="M427.52127 301.1462L427.52127 231.7868" fill-rule="nonzero"/><path fill="#4285f4" clip-path="url(#id_0)" d="M352.40744 230.7868L502.6351 230.7868L502.6351 260.4078L352.40744 260.4078L352.40744 230.7868Z" fill-rule="nonzero"/><path fill="#000000" d="M23.05 332.21564Q23.05 330.6844 23.3625 329.7625Q23.675 328.825 24.284374 328.325Q24.909374 327.825 25.846874 327.825Q26.534374 327.825 27.05 328.10626Q27.58125 328.3875 27.925 328.91876Q28.26875 329.4344 28.45625 330.1844Q28.64375 330.9344 28.64375 332.21564Q28.64375 333.73126 28.33125 334.65314Q28.034374 335.575 27.409374 336.09064Q26.8 336.59064 25.846874 336.59064Q24.6125 336.59064 23.89375 335.7Q23.05 334.6375 23.05 332.21564ZM24.128124 332.21564Q24.128124 334.325 24.628124 335.02814Q25.128124 335.73126 25.846874 335.73126Q26.58125 335.73126 27.065624 335.02814Q27.565624 334.325 27.565624 332.21564Q27.565624 330.09064 27.065624 329.40314Q26.58125 328.7 25.83125 328.7Q25.1125 328.7 24.675 329.3094Q24.128124 330.09064 24.128124 332.21564ZM30.64375 336.45L30.64375 335.2469L31.846874 335.2469L31.846874 336.45L30.64375 336.45ZM33.05 332.21564Q33.05 330.6844 33.3625 329.7625Q33.675 328.825 34.284374 328.325Q34.909374 327.825 35.846874 327.825Q36.534374 327.825 37.05 328.10626Q37.58125 328.3875 37.925 328.91876Q38.26875 329.4344 38.45625 330.1844Q38.64375 330.9344 38.64375 332.21564Q38.64375 333.73126 38.33125 334.65314Q38.034374 335.575 37.409374 336.09064Q36.8 336.59064 35.846874 336.59064Q34.6125 336.59064 33.89375 335.7Q33.05 334.6375 33.05 332.21564ZM34.128124 332.21564Q34.128124 334.325 34.628124 335.02814Q35.128124 335.73126 35.846874 335.73126Q36.58125 335.73126 37.065624 335.02814Q37.565624 334.325 37.565624 332.21564Q37.565624 330.09064 37.065624 329.40314Q36.58125 328.7 35.83125 328.7Q35.1125 328.7 34.675 329.3094Q34.128124 330.09064 34.128124 332.21564Z" fill-rule="nonzero"/><path fill="#000000" d="M23.05 270.83563Q23.05 269.30438 23.3625 268.3825Q23.675 267.445 24.284374 266.945Q24.909374 266.445 25.846874 266.445Q26.534374 266.445 27.05 266.72626Q27.58125 267.0075 27.925 267.53876Q28.26875 268.05438 28.45625 268.80438Q28.64375 269.55438 28.64375 270.83563Q28.64375 272.35126 28.33125 273.27313Q28.034374 274.195 27.409374 274.71063Q26.8 275.21063 25.846874 275.21063Q24.6125 275.21063 23.89375 274.32Q23.05 273.2575 23.05 270.83563ZM24.128124 270.83563Q24.128124 272.945 24.628124 273.64813Q25.128124 274.35126 25.846874 274.35126Q26.58125 274.35126 27.065624 273.64813Q27.565624 272.945 27.565624 270.83563Q27.565624 268.71063 27.065624 268.02313Q26.58125 267.32 25.83125 267.32Q25.1125 267.32 24.675 267.92938Q24.128124 268.71063 24.128124 270.83563ZM30.64375 275.07L30.64375 273.86688L31.846874 273.86688L31.846874 275.07L30.64375 275.07ZM37.01875 275.07L35.971874 275.07L35.971874 268.35126Q35.58125 268.71063 34.95625 269.08563Q34.346874 269.445 33.8625 269.61688L33.8625 268.60126Q34.7375 268.17938 35.39375 267.60126Q36.065624 267.0075 36.346874 266.445L37.01875 266.445L37.01875 275.07Z" fill-rule="nonzero"/><path fill="#000000" d="M23.05 209.45563Q23.05 207.92438 23.3625 207.0025Q23.675 206.065 24.284374 205.565Q24.909374 205.065 25.846874 205.065Q26.534374 205.065 27.05 205.34625Q27.58125 205.6275 27.925 206.15875Q28.26875 206.67438 28.45625 207.42438Q28.64375 208.17438 28.64375 209.45563Q28.64375 210.97125 28.33125 211.89313Q28.034374 212.815 27.409374 213.33063Q26.8 213.83063 25.846874 213.83063Q24.6125 213.83063 23.89375 212.94Q23.05 211.8775 23.05 209.45563ZM24.128124 209.45563Q24.128124 211.565 24.628124 212.26813Q25.128124 212.97125 25.846874 212.97125Q26.58125 212.97125 27.065624 212.26813Q27.565624 211.565 27.565624 209.45563Q27.565624 207.33063 27.065624 206.64313Q26.58125 205.94 25.83125 205.94Q25.1125 205.94 24.675 206.54938Q24.128124 207.33063 24.128124 209.45563ZM30.64375 213.69L30.64375 212.48688L31.846874 212.48688L31.846874 213.69L30.64375 213.69ZM38.596874 212.67438L38.596874 213.69L32.909374 213.69Q32.909374 213.315 33.034374 212.95563Q33.253124 212.3775 33.721874 211.815Q34.20625 211.2525 35.1125 210.51813Q36.51875 209.36188 37.003124 208.69Q37.503124 208.01813 37.503124 207.42438Q37.503124 206.79938 37.05 206.3775Q36.596874 205.94 35.878124 205.94Q35.1125 205.94 34.659374 206.39313Q34.20625 206.84625 34.190624 207.65875L33.1125 207.54938Q33.221874 206.33063 33.940624 205.70563Q34.675 205.065 35.909374 205.065Q37.14375 205.065 37.8625 205.7525Q38.58125 206.44 38.58125 207.45563Q38.58125 207.97125 38.3625 208.47125Q38.159374 208.95563 37.659374 209.51813Q37.175 210.065 36.05 211.01813Q35.096874 211.815 34.815624 212.11188Q34.55 212.39313 34.378124 212.67438L38.596874 212.67438Z" fill-rule="nonzero"/><path fill="#000000" d="M23.05 148.07562Q23.05 146.54437 23.3625 145.6225Q23.675 144.685 24.284374 144.185Q24.909374 143.685 25.846874 143.685Q26.534374 143.685 27.05 143.96625Q27.58125 144.2475 27.925 144.77875Q28.26875 145.29437 28.45625 146.04437Q28.64375 146.79437 28.64375 148.07562Q28.64375 149.59125 28.33125 150.51312Q28.034374 151.435 27.409374 151.95062Q26.8 152.45062 25.846874 152.45062Q24.6125 152.45062 23.89375 151.56Q23.05 150.4975 23.05 148.07562ZM24.128124 148.07562Q24.128124 150.185 24.628124 150.88812Q25.128124 151.59125 25.846874 151.59125Q26.58125 151.59125 27.065624 150.88812Q27.565624 150.185 27.565624 148.07562Q27.565624 145.95062 27.065624 145.26312Q26.58125 144.56 25.83125 144.56Q25.1125 144.56 24.675 145.16937Q24.128124 145.95062 24.128124 148.07562ZM30.64375 152.31L30.64375 151.10687L31.846874 151.10687L31.846874 152.31L30.64375 152.31ZM33.05 150.04437L34.1125 149.90375Q34.284374 150.79437 34.721874 151.20062Q35.159374 151.59125 35.784374 151.59125Q36.534374 151.59125 37.05 151.07562Q37.565624 150.56 37.565624 149.79437Q37.565624 149.07562 37.08125 148.60687Q36.6125 148.1225 35.878124 148.1225Q35.58125 148.1225 35.128124 148.2475L35.253124 147.31Q35.3625 147.32562 35.425 147.32562Q36.096874 147.32562 36.628124 146.98187Q37.175 146.6225 37.175 145.88812Q37.175 145.31 36.784374 144.935Q36.39375 144.54437 35.76875 144.54437Q35.159374 144.54437 34.7375 144.935Q34.33125 145.32562 34.221874 146.09125L33.159374 145.90375Q33.346874 144.85687 34.034374 144.27875Q34.721874 143.685 35.7375 143.685Q36.440624 143.685 37.034374 143.9975Q37.628124 144.29437 37.940624 144.81Q38.253124 145.32562 38.253124 145.91937Q38.253124 146.46625 37.95625 146.935Q37.659374 147.38812 37.08125 147.65375Q37.83125 147.82562 38.253124 148.38812Q38.675 148.935 38.675 149.77875Q38.675 150.90375 37.846874 151.685Q37.034374 152.46625 35.784374 152.46625Q34.659374 152.46625 33.909374 151.79437Q33.159374 151.10687 33.05 150.04437Z" fill-rule="nonzero"/><path fill="#000000" d="M23.05 86.695625Q23.05 85.164375 23.3625 84.2425Q23.675 83.305 24.284374 82.805Q24.909374 82.305 25.846874 82.305Q26.534374 82.305 27.05 82.58625Q27.58125 82.8675 27.925 83.39875Q28.26875 83.914375 28.45625 84.664375Q28.64375 85.414375 28.64375 86.695625Q28.64375 88.21125 28.33125 89.133125Q28.034374 90.055 27.409374 90.570625Q26.8 91.070625 25.846874 91.070625Q24.6125 91.070625 23.89375 90.18Q23.05 89.1175 23.05 86.695625ZM24.128124 86.695625Q24.128124 88.805 24.628124 89.508125Q25.128124 90.21125 25.846874 90.21125Q26.58125 90.21125 27.065624 89.508125Q27.565624 88.805 27.565624 86.695625Q27.565624 84.570625 27.065624 83.883125Q26.58125 83.18 25.83125 83.18Q25.1125 83.18 24.675 83.789375Q24.128124 84.570625 24.128124 86.695625ZM30.64375 90.93L30.64375 89.726875L31.846874 89.726875L31.846874 90.93L30.64375 90.93ZM36.425 90.93L36.425 88.8675L32.70625 88.8675L32.70625 87.89875L36.628124 82.33625L37.4875 82.33625L37.4875 87.89875L38.64375 87.89875L38.64375 88.8675L37.4875 88.8675L37.4875 90.93L36.425 90.93ZM36.425 87.89875L36.425 84.039375L33.7375 87.89875L36.425 87.89875Z" fill-rule="nonzero"/><path fill="#000000" d="M23.05 25.315624Q23.05 23.784374 23.3625 22.8625Q23.675 21.925 24.284374 21.425Q24.909374 20.925 25.846874 20.925Q26.534374 20.925 27.05 21.20625Q27.58125 21.4875 27.925 22.01875Q28.26875 22.534374 28.45625 23.284374Q28.64375 24.034374 28.64375 25.315624Q28.64375 26.83125 28.33125 27.753124Q28.034374 28.675 27.409374 29.190624Q26.8 29.690624 25.846874 29.690624Q24.6125 29.690624 23.89375 28.8Q23.05 27.7375 23.05 25.315624ZM24.128124 25.315624Q24.128124 27.425 24.628124 28.128124Q25.128124 28.83125 25.846874 28.83125Q26.58125 28.83125 27.065624 28.128124Q27.565624 27.425 27.565624 25.315624Q27.565624 23.190624 27.065624 22.503124Q26.58125 21.8 25.83125 21.8Q25.1125 21.8 24.675 22.409374Q24.128124 23.190624 24.128124 25.315624ZM30.64375 29.55L30.64375 28.346874L31.846874 28.346874L31.846874 29.55L30.64375 29.55ZM33.05 27.3L34.159374 27.20625Q34.284374 28.01875 34.721874 28.425Q35.175 28.83125 35.815624 28.83125Q36.565624 28.83125 37.096874 28.253124Q37.628124 27.675 37.628124 26.7375Q37.628124 25.83125 37.1125 25.315624Q36.6125 24.784374 35.784374 24.784374Q35.284374 24.784374 34.8625 25.01875Q34.45625 25.253124 34.221874 25.6125L33.2375 25.4875L34.065624 21.08125L38.346874 21.08125L38.346874 22.08125L34.909374 22.08125L34.45625 24.39375Q35.221874 23.846874 36.065624 23.846874Q37.190624 23.846874 37.95625 24.628124Q38.7375 25.409374 38.7375 26.64375Q38.7375 27.8 38.065624 28.659374Q37.2375 29.690624 35.815624 29.690624Q34.64375 29.690624 33.89375 29.034374Q33.159374 28.378124 33.05 27.3Z" fill-rule="nonzero"/><path fill="#000000" d="M139.7756 349.45L139.7756 343.23126L140.7131 343.23126L140.7131 344.10626Q141.00998 343.6375 141.49435 343.3719Q141.97873 343.09064 142.60373 343.09064Q143.29123 343.09064 143.72873 343.3719Q144.18185 343.65314 144.35373 344.16876Q145.10373 343.09064 146.2756 343.09064Q147.2131 343.09064 147.69748 343.60626Q148.19748 344.10626 148.19748 345.1844L148.19748 349.45L147.1506 349.45L147.1506 345.52814Q147.1506 344.90314 147.04123 344.6219Q146.94748 344.34064 146.68185 344.16876Q146.41623 343.9969 146.04123 343.9969Q145.38498 343.9969 144.94748 344.4344Q144.5256 344.8719 144.5256 345.84064L144.5256 349.45L143.4631 349.45L143.4631 345.40314Q143.4631 344.7 143.19748 344.35626Q142.94748 343.9969 142.36935 343.9969Q141.91623 343.9969 141.54123 344.23126Q141.16623 344.46564 140.99435 344.91876Q140.82248 345.3719 140.82248 346.21564L140.82248 349.45L139.7756 349.45ZM153.85373 349.45L153.85373 348.52814Q153.11935 349.59064 151.86935 349.59064Q151.32248 349.59064 150.8381 349.3875Q150.36935 349.16876 150.13498 348.85626Q149.9006 348.52814 149.80685 348.0594Q149.74435 347.7625 149.74435 347.075L149.74435 343.23126L150.80685 343.23126L150.80685 346.6844Q150.80685 347.4969 150.86935 347.79376Q150.9631 348.2 151.2756 348.45Q151.60373 348.6844 152.0881 348.6844Q152.55685 348.6844 152.9631 348.45Q153.38498 348.2 153.55685 347.77814Q153.74435 347.35626 153.74435 346.5594L153.74435 343.23126L154.79123 343.23126L154.79123 349.45L153.85373 349.45ZM156.74435 349.45L156.74435 340.85626L157.80685 340.85626L157.80685 349.45L156.74435 349.45ZM162.07248 348.5125L162.22873 349.4344Q161.7756 349.52814 161.43185 349.52814Q160.85373 349.52814 160.54123 349.35626Q160.22873 349.16876 160.0881 348.8719Q159.9631 348.575 159.9631 347.6219L159.9631 344.04376L159.19748 344.04376L159.19748 343.23126L159.9631 343.23126L159.9631 341.6844L161.00998 341.0594L161.00998 343.23126L162.07248 343.23126L162.07248 344.04376L161.00998 344.04376L161.00998 347.6844Q161.00998 348.1375 161.05685 348.2625Q161.11935 348.3875 161.24435 348.46564Q161.36935 348.54376 161.60373 348.54376Q161.79123 348.54376 162.07248 348.5125ZM162.7756 342.075L162.7756 340.85626L163.8381 340.85626L163.8381 342.075L162.7756 342.075ZM162.7756 349.45L162.7756 343.23126L163.8381 343.23126L163.8381 349.45L162.7756 349.45ZM165.35373 346.8719L165.35373 345.8094L168.60373 345.8094L168.60373 346.8719L165.35373 346.8719ZM172.07248 348.5125L172.22873 349.4344Q171.7756 349.52814 171.43185 349.52814Q170.85373 349.52814 170.54123 349.35626Q170.22873 349.16876 170.0881 348.8719Q169.9631 348.575 169.9631 347.6219L169.9631 344.04376L169.19748 344.04376L169.19748 343.23126L169.9631 343.23126L169.9631 341.6844L171.00998 341.0594L171.00998 343.23126L172.07248 343.23126L172.07248 344.04376L171.00998 344.04376L171.00998 347.6844Q171.00998 348.1375 171.05685 348.2625Q171.11935 348.3875 171.24435 348.46564Q171.36935 348.54376 171.60373 348.54376Q171.79123 348.54376 172.07248 348.5125ZM172.7756 349.45L172.7756 340.85626L173.82248 340.85626L173.82248 343.9344Q174.55685 343.09064 175.68185 343.09064Q176.38498 343.09064 176.88498 343.3719Q177.4006 343.6375 177.61935 344.1219Q177.8381 344.59064 177.8381 345.5125L177.8381 349.45L176.79123 349.45L176.79123 345.5125Q176.79123 344.71564 176.44748 344.35626Q176.10373 343.9969 175.47873 343.9969Q175.00998 343.9969 174.5881 344.2469Q174.18185 344.48126 173.99435 344.90314Q173.82248 345.3094 173.82248 346.04376L173.82248 349.45L172.7756 349.45ZM179.75998 349.45L179.75998 343.23126L180.7131 343.23126L180.7131 344.16876Q181.07248 343.5125 181.36935 343.3094Q181.68185 343.09064 182.05685 343.09064Q182.5881 343.09064 183.13498 343.41876L182.7756 344.40314Q182.38498 344.16876 182.00998 344.16876Q181.6506 344.16876 181.36935 344.3875Q181.10373 344.59064 180.99435 344.96564Q180.80685 345.52814 180.80685 346.1844L180.80685 349.45L179.75998 349.45ZM188.0256 347.45L189.11935 347.575Q188.86935 348.52814 188.16623 349.0594Q187.4631 349.59064 186.38498 349.59064Q185.0256 349.59064 184.2131 348.7469Q183.41623 347.90314 183.41623 346.3875Q183.41623 344.825 184.22873 343.96564Q185.04123 343.09064 186.32248 343.09064Q187.57248 343.09064 188.35373 343.9344Q189.1506 344.77814 189.1506 346.325Q189.1506 346.41876 189.1506 346.60626L184.50998 346.60626Q184.57248 347.6375 185.0881 348.1844Q185.60373 348.71564 186.38498 348.71564Q186.9631 348.71564 187.36935 348.41876Q187.79123 348.10626 188.0256 347.45ZM184.57248 345.7469L188.04123 345.7469Q187.97873 344.95 187.6506 344.5594Q187.13498 343.95 186.3381 343.95Q185.60373 343.95 185.10373 344.4344Q184.61935 344.91876 184.57248 345.7469ZM194.8381 348.6844Q194.24435 349.1844 193.69748 349.3875Q193.16623 349.59064 192.54123 349.59064Q191.50998 349.59064 190.9631 349.09064Q190.41623 348.59064 190.41623 347.8094Q190.41623 347.35626 190.61935 346.98126Q190.82248 346.59064 191.16623 346.3719Q191.50998 346.1375 191.93185 346.02814Q192.22873 345.9344 192.86935 345.85626Q194.13498 345.71564 194.74435 345.4969Q194.74435 345.27814 194.74435 345.23126Q194.74435 344.575 194.44748 344.3094Q194.04123 343.96564 193.24435 343.96564Q192.50998 343.96564 192.1506 344.23126Q191.79123 344.48126 191.61935 345.1375L190.5881 344.9969Q190.72873 344.34064 191.05685 343.9344Q191.38498 343.52814 191.99435 343.3094Q192.60373 343.09064 193.4006 343.09064Q194.19748 343.09064 194.69748 343.27814Q195.19748 343.46564 195.43185 343.7469Q195.66623 344.02814 195.75998 344.46564Q195.80685 344.73126 195.80685 345.4344L195.80685 346.84064Q195.80685 348.3094 195.86935 348.7Q195.94748 349.09064 196.1506 349.45L195.04123 349.45Q194.88498 349.1219 194.8381 348.6844ZM194.74435 346.325Q194.16623 346.5594 193.0256 346.73126Q192.36935 346.825 192.10373 346.95Q191.8381 347.0594 191.68185 347.27814Q191.54123 347.4969 191.54123 347.77814Q191.54123 348.2 191.85373 348.48126Q192.18185 348.7625 192.79123 348.7625Q193.4006 348.7625 193.86935 348.4969Q194.35373 348.23126 194.57248 347.7625Q194.74435 347.40314 194.74435 346.71564L194.74435 346.325ZM201.80685 349.45L201.80685 348.66876Q201.2131 349.59064 200.07248 349.59064Q199.32248 349.59064 198.69748 349.1844Q198.07248 348.7625 197.72873 348.02814Q197.38498 347.29376 197.38498 346.34064Q197.38498 345.41876 197.69748 344.65314Q198.00998 343.8875 198.63498 343.4969Q199.25998 343.09064 200.0256 343.09064Q200.5881 343.09064 201.0256 343.325Q201.4631 343.5594 201.74435 343.9344L201.74435 340.85626L202.79123 340.85626L202.79123 349.45L201.80685 349.45ZM198.47873 346.34064Q198.47873 347.54376 198.97873 348.1375Q199.47873 348.71564 200.16623 348.71564Q200.85373 348.71564 201.3381 348.15314Q201.82248 347.59064 201.82248 346.4344Q201.82248 345.15314 201.32248 344.5594Q200.8381 343.96564 200.11935 343.96564Q199.41623 343.96564 198.94748 344.54376Q198.47873 345.10626 198.47873 346.34064ZM209.0256 347.45L210.11935 347.575Q209.86935 348.52814 209.16623 349.0594Q208.4631 349.59064 207.38498 349.59064Q206.0256 349.59064 205.2131 348.7469Q204.41623 347.90314 204.41623 346.3875Q204.41623 344.825 205.22873 343.96564Q206.04123 343.09064 207.32248 343.09064Q208.57248 343.09064 209.35373 343.9344Q210.1506 344.77814 210.1506 346.325Q210.1506 346.41876 210.1506 346.60626L205.50998 346.60626Q205.57248 347.6375 206.0881 348.1844Q206.60373 348.71564 207.38498 348.71564Q207.9631 348.71564 208.36935 348.41876Q208.79123 348.10626 209.0256 347.45ZM205.57248 345.7469L209.04123 345.7469Q208.97873 344.95 208.6506 344.5594Q208.13498 343.95 207.3381 343.95Q206.60373 343.95 206.10373 344.4344Q205.61935 344.91876 205.57248 345.7469ZM215.80685 349.45L215.80685 348.66876Q215.2131 349.59064 214.07248 349.59064Q213.32248 349.59064 212.69748 349.1844Q212.07248 348.7625 211.72873 348.02814Q211.38498 347.29376 211.38498 346.34064Q211.38498 345.41876 211.69748 344.65314Q212.00998 343.8875 212.63498 343.4969Q213.25998 343.09064 214.0256 343.09064Q214.5881 343.09064 215.0256 343.325Q215.4631 343.5594 215.74435 343.9344L215.74435 340.85626L216.79123 340.85626L216.79123 349.45L215.80685 349.45ZM212.47873 346.34064Q212.47873 347.54376 212.97873 348.1375Q213.47873 348.71564 214.16623 348.71564Q214.85373 348.71564 215.3381 348.15314Q215.82248 347.59064 215.82248 346.4344Q215.82248 345.15314 215.32248 344.5594Q214.8381 343.96564 214.11935 343.96564Q213.41623 343.96564 212.94748 344.54376Q212.47873 345.10626 212.47873 346.34064ZM223.79123 351.98126Q222.91623 350.8719 222.30685 349.40314Q221.7131 347.91876 221.7131 346.34064Q221.7131 344.95 222.1506 343.66876Q222.68185 342.1844 223.79123 340.71564L224.54123 340.71564Q223.8381 341.9344 223.60373 342.45Q223.24435 343.2625 223.04123 344.1375Q222.79123 345.23126 222.79123 346.34064Q222.79123 349.16876 224.54123 351.98126L223.79123 351.98126ZM225.75998 349.45L225.75998 343.23126L226.7131 343.23126L226.7131 344.16876Q227.07248 343.5125 227.36935 343.3094Q227.68185 343.09064 228.05685 343.09064Q228.5881 343.09064 229.13498 343.41876L228.7756 344.40314Q228.38498 344.16876 228.00998 344.16876Q227.6506 344.16876 227.36935 344.3875Q227.10373 344.59064 226.99435 344.96564Q226.80685 345.52814 226.80685 346.1844L226.80685 349.45L225.75998 349.45ZM233.8381 348.6844Q233.24435 349.1844 232.69748 349.3875Q232.16623 349.59064 231.54123 349.59064Q230.50998 349.59064 229.9631 349.09064Q229.41623 348.59064 229.41623 347.8094Q229.41623 347.35626 229.61935 346.98126Q229.82248 346.59064 230.16623 346.3719Q230.50998 346.1375 230.93185 346.02814Q231.22873 345.9344 231.86935 345.85626Q233.13498 345.71564 233.74435 345.4969Q233.74435 345.27814 233.74435 345.23126Q233.74435 344.575 233.44748 344.3094Q233.04123 343.96564 232.24435 343.96564Q231.50998 343.96564 231.1506 344.23126Q230.79123 344.48126 230.61935 345.1375L229.5881 344.9969Q229.72873 344.34064 230.05685 343.9344Q230.38498 343.52814 230.99435 343.3094Q231.60373 343.09064 232.4006 343.09064Q233.19748 343.09064 233.69748 343.27814Q234.19748 343.46564 234.43185 343.7469Q234.66623 344.02814 234.75998 344.46564Q234.80685 344.73126 234.80685 345.4344L234.80685 346.84064Q234.80685 348.3094 234.86935 348.7Q234.94748 349.09064 235.1506 349.45L234.04123 349.45Q233.88498 349.1219 233.8381 348.6844ZM233.74435 346.325Q233.16623 346.5594 232.0256 346.73126Q231.36935 346.825 231.10373 346.95Q230.8381 347.0594 230.68185 347.27814Q230.54123 347.4969 230.54123 347.77814Q230.54123 348.2 230.85373 348.48126Q231.18185 348.7625 231.79123 348.7625Q232.4006 348.7625 232.86935 348.4969Q233.35373 348.23126 233.57248 347.7625Q233.74435 347.40314 233.74435 346.71564L233.74435 346.325ZM236.72873 351.84064L236.60373 350.85626Q236.94748 350.95 237.2131 350.95Q237.55685 350.95 237.75998 350.825Q237.97873 350.71564 238.11935 350.5125Q238.2131 350.34064 238.44748 349.71564Q238.4631 349.6375 238.54123 349.46564L236.16623 343.23126L237.30685 343.23126L238.60373 346.825Q238.85373 347.5125 239.05685 348.27814Q239.24435 347.54376 239.49435 346.85626L240.82248 343.23126L241.86935 343.23126L239.50998 349.5594Q239.11935 350.575 238.91623 350.96564Q238.63498 351.4969 238.25998 351.73126Q237.9006 351.98126 237.4006 351.98126Q237.10373 351.98126 236.72873 351.84064ZM242.38498 346.34064Q242.38498 344.60626 243.3381 343.77814Q244.13498 343.09064 245.29123 343.09064Q246.57248 343.09064 247.38498 343.9344Q248.2131 344.7625 248.2131 346.2469Q248.2131 347.45 247.85373 348.1375Q247.49435 348.825 246.79123 349.21564Q246.10373 349.59064 245.29123 349.59064Q243.99435 349.59064 243.18185 348.7625Q242.38498 347.91876 242.38498 346.34064ZM243.4631 346.34064Q243.4631 347.52814 243.97873 348.1219Q244.50998 348.71564 245.29123 348.71564Q246.0881 348.71564 246.60373 348.1219Q247.11935 347.52814 247.11935 346.3094Q247.11935 345.15314 246.5881 344.5594Q246.07248 343.96564 245.29123 343.96564Q244.50998 343.96564 243.97873 344.5594Q243.4631 345.1375 243.4631 346.34064ZM249.7756 349.45L249.7756 343.23126L250.7131 343.23126L250.7131 344.10626Q251.4006 343.09064 252.69748 343.09064Q253.25998 343.09064 253.72873 343.29376Q254.2131 343.4969 254.44748 343.825Q254.68185 344.15314 254.7756 344.59064Q254.82248 344.8875 254.82248 345.6219L254.82248 349.45L253.7756 349.45L253.7756 345.66876Q253.7756 345.0125 253.6506 344.7Q253.5256 344.3875 253.2131 344.2Q252.9006 343.9969 252.47873 343.9969Q251.80685 343.9969 251.30685 344.4344Q250.82248 344.85626 250.82248 346.04376L250.82248 349.45L249.7756 349.45ZM257.4631 351.98126L256.7131 351.98126Q258.4631 349.16876 258.4631 346.34064Q258.4631 345.2469 258.2131 344.15314Q258.00998 343.27814 257.6506 342.46564Q257.41623 341.95 256.7131 340.71564L257.4631 340.71564Q258.55685 342.1844 259.0881 343.66876Q259.54123 344.95 259.54123 346.34064Q259.54123 347.91876 258.93185 349.40314Q258.32248 350.8719 257.4631 351.98126Z" fill-rule="nonzero"/><path fill="#000000" d="M363.81815 349.45L363.81815 343.23126L364.75565 343.23126L364.75565 344.10626Q365.05252 343.6375 365.5369 343.3719Q366.02127 343.09064 366.64627 343.09064Q367.33377 343.09064 367.77127 343.3719Q368.2244 343.65314 368.39627 344.16876Q369.14627 343.09064 370.31815 343.09064Q371.25565 343.09064 371.74002 343.60626Q372.24002 344.10626 372.24002 345.1844L372.24002 349.45L371.19315 349.45L371.19315 345.52814Q371.19315 344.90314 371.08377 344.6219Q370.99002 344.34064 370.7244 344.16876Q370.45877 343.9969 370.08377 343.9969Q369.42752 343.9969 368.99002 344.4344Q368.56815 344.8719 368.56815 345.84064L368.56815 349.45L367.50565 349.45L367.50565 345.40314Q367.50565 344.7 367.24002 344.35626Q366.99002 343.9969 366.4119 343.9969Q365.95877 343.9969 365.58377 344.23126Q365.20877 344.46564 365.0369 344.91876Q364.86502 345.3719 364.86502 346.21564L364.86502 349.45L363.81815 349.45ZM377.89627 349.45L377.89627 348.52814Q377.1619 349.59064 375.9119 349.59064Q375.36502 349.59064 374.88065 349.3875Q374.4119 349.16876 374.17752 348.85626Q373.94315 348.52814 373.8494 348.0594Q373.7869 347.7625 373.7869 347.075L373.7869 343.23126L374.8494 343.23126L374.8494 346.6844Q374.8494 347.4969 374.9119 347.79376Q375.00565 348.2 375.31815 348.45Q375.64627 348.6844 376.13065 348.6844Q376.5994 348.6844 377.00565 348.45Q377.42752 348.2 377.5994 347.77814Q377.7869 347.35626 377.7869 346.5594L377.7869 343.23126L378.83377 343.23126L378.83377 349.45L377.89627 349.45ZM380.7869 349.45L380.7869 340.85626L381.8494 340.85626L381.8494 349.45L380.7869 349.45ZM386.11502 348.5125L386.27127 349.4344Q385.81815 349.52814 385.4744 349.52814Q384.89627 349.52814 384.58377 349.35626Q384.27127 349.16876 384.13065 348.8719Q384.00565 348.575 384.00565 347.6219L384.00565 344.04376L383.24002 344.04376L383.24002 343.23126L384.00565 343.23126L384.00565 341.6844L385.05252 341.0594L385.05252 343.23126L386.11502 343.23126L386.11502 344.04376L385.05252 344.04376L385.05252 347.6844Q385.05252 348.1375 385.0994 348.2625Q385.1619 348.3875 385.2869 348.46564Q385.4119 348.54376 385.64627 348.54376Q385.83377 348.54376 386.11502 348.5125ZM386.81815 342.075L386.81815 340.85626L387.88065 340.85626L387.88065 342.075L386.81815 342.075ZM386.81815 349.45L386.81815 343.23126L387.88065 343.23126L387.88065 349.45L386.81815 349.45ZM389.39627 346.8719L389.39627 345.8094L392.64627 345.8094L392.64627 346.8719L389.39627 346.8719ZM396.11502 348.5125L396.27127 349.4344Q395.81815 349.52814 395.4744 349.52814Q394.89627 349.52814 394.58377 349.35626Q394.27127 349.16876 394.13065 348.8719Q394.00565 348.575 394.00565 347.6219L394.00565 344.04376L393.24002 344.04376L393.24002 343.23126L394.00565 343.23126L394.00565 341.6844L395.05252 341.0594L395.05252 343.23126L396.11502 343.23126L396.11502 344.04376L395.05252 344.04376L395.05252 347.6844Q395.05252 348.1375 395.0994 348.2625Q395.1619 348.3875 395.2869 348.46564Q395.4119 348.54376 395.64627 348.54376Q395.83377 348.54376 396.11502 348.5125ZM396.81815 349.45L396.81815 340.85626L397.86502 340.85626L397.86502 343.9344Q398.5994 343.09064 399.7244 343.09064Q400.42752 343.09064 400.92752 343.3719Q401.44315 343.6375 401.6619 344.1219Q401.88065 344.59064 401.88065 345.5125L401.88065 349.45L400.83377 349.45L400.83377 345.5125Q400.83377 344.71564 400.49002 344.35626Q400.14627 343.9969 399.52127 343.9969Q399.05252 343.9969 398.63065 344.2469Q398.2244 344.48126 398.0369 344.90314Q397.86502 345.3094 397.86502 346.04376L397.86502 349.45L396.81815 349.45ZM403.80252 349.45L403.80252 343.23126L404.75565 343.23126L404.75565 344.16876Q405.11502 343.5125 405.4119 343.3094Q405.7244 343.09064 406.0994 343.09064Q406.63065 343.09064 407.17752 343.41876L406.81815 344.40314Q406.42752 344.16876 406.05252 344.16876Q405.69315 344.16876 405.4119 344.3875Q405.14627 344.59064 405.0369 344.96564Q404.8494 345.52814 404.8494 346.1844L404.8494 349.45L403.80252 349.45ZM412.06815 347.45L413.1619 347.575Q412.9119 348.52814 412.20877 349.0594Q411.50565 349.59064 410.42752 349.59064Q409.06815 349.59064 408.25565 348.7469Q407.45877 347.90314 407.45877 346.3875Q407.45877 344.825 408.27127 343.96564Q409.08377 343.09064 410.36502 343.09064Q411.61502 343.09064 412.39627 343.9344Q413.19315 344.77814 413.19315 346.325Q413.19315 346.41876 413.19315 346.60626L408.55252 346.60626Q408.61502 347.6375 409.13065 348.1844Q409.64627 348.71564 410.42752 348.71564Q411.00565 348.71564 411.4119 348.41876Q411.83377 348.10626 412.06815 347.45ZM408.61502 345.7469L412.08377 345.7469Q412.02127 344.95 411.69315 344.5594Q411.17752 343.95 410.38065 343.95Q409.64627 343.95 409.14627 344.4344Q408.6619 344.91876 408.61502 345.7469ZM418.88065 348.6844Q418.2869 349.1844 417.74002 349.3875Q417.20877 349.59064 416.58377 349.59064Q415.55252 349.59064 415.00565 349.09064Q414.45877 348.59064 414.45877 347.8094Q414.45877 347.35626 414.6619 346.98126Q414.86502 346.59064 415.20877 346.3719Q415.55252 346.1375 415.9744 346.02814Q416.27127 345.9344 416.9119 345.85626Q418.17752 345.71564 418.7869 345.4969Q418.7869 345.27814 418.7869 345.23126Q418.7869 344.575 418.49002 344.3094Q418.08377 343.96564 417.2869 343.96564Q416.55252 343.96564 416.19315 344.23126Q415.83377 344.48126 415.6619 345.1375L414.63065 344.9969Q414.77127 344.34064 415.0994 343.9344Q415.42752 343.52814 416.0369 343.3094Q416.64627 343.09064 417.44315 343.09064Q418.24002 343.09064 418.74002 343.27814Q419.24002 343.46564 419.4744 343.7469Q419.70877 344.02814 419.80252 344.46564Q419.8494 344.73126 419.8494 345.4344L419.8494 346.84064Q419.8494 348.3094 419.9119 348.7Q419.99002 349.09064 420.19315 349.45L419.08377 349.45Q418.92752 349.1219 418.88065 348.6844ZM418.7869 346.325Q418.20877 346.5594 417.06815 346.73126Q416.4119 346.825 416.14627 346.95Q415.88065 347.0594 415.7244 347.27814Q415.58377 347.4969 415.58377 347.77814Q415.58377 348.2 415.89627 348.48126Q416.2244 348.7625 416.83377 348.7625Q417.44315 348.7625 417.9119 348.4969Q418.39627 348.23126 418.61502 347.7625Q418.7869 347.40314 418.7869 346.71564L418.7869 346.325ZM425.8494 349.45L425.8494 348.66876Q425.25565 349.59064 424.11502 349.59064Q423.36502 349.59064 422.74002 349.1844Q422.11502 348.7625 421.77127 348.02814Q421.42752 347.29376 421.42752 346.34064Q421.42752 345.41876 421.74002 344.65314Q422.05252 343.8875 422.67752 343.4969Q423.30252 343.09064 424.06815 343.09064Q424.63065 343.09064 425.06815 343.325Q425.50565 343.5594 425.7869 343.9344L425.7869 340.85626L426.83377 340.85626L426.83377 349.45L425.8494 349.45ZM422.52127 346.34064Q422.52127 347.54376 423.02127 348.1375Q423.52127 348.71564 424.20877 348.71564Q424.89627 348.71564 425.38065 348.15314Q425.86502 347.59064 425.86502 346.4344Q425.86502 345.15314 425.36502 344.5594Q424.88065 343.96564 424.1619 343.96564Q423.45877 343.96564 422.99002 344.54376Q422.52127 345.10626 422.52127 346.34064ZM433.06815 347.45L434.1619 347.575Q433.9119 348.52814 433.20877 349.0594Q432.50565 349.59064 431.42752 349.59064Q430.06815 349.59064 429.25565 348.7469Q428.45877 347.90314 428.45877 346.3875Q428.45877 344.825 429.27127 343.96564Q430.08377 343.09064 431.36502 343.09064Q432.61502 343.09064 433.39627 343.9344Q434.19315 344.77814 434.19315 346.325Q434.19315 346.41876 434.19315 346.60626L429.55252 346.60626Q429.61502 347.6375 430.13065 348.1844Q430.64627 348.71564 431.42752 348.71564Q432.00565 348.71564 432.4119 348.41876Q432.83377 348.10626 433.06815 347.45ZM429.61502 345.7469L433.08377 345.7469Q433.02127 344.95 432.69315 344.5594Q432.17752 343.95 431.38065 343.95Q430.64627 343.95 430.14627 344.4344Q429.6619 344.91876 429.61502 345.7469ZM439.8494 349.45L439.8494 348.66876Q439.25565 349.59064 438.11502 349.59064Q437.36502 349.59064 436.74002 349.1844Q436.11502 348.7625 435.77127 348.02814Q435.42752 347.29376 435.42752 346.34064Q435.42752 345.41876 435.74002 344.65314Q436.05252 343.8875 436.67752 343.4969Q437.30252 343.09064 438.06815 343.09064Q438.63065 343.09064 439.06815 343.325Q439.50565 343.5594 439.7869 343.9344L439.7869 340.85626L440.83377 340.85626L440.83377 349.45L439.8494 349.45ZM436.52127 346.34064Q436.52127 347.54376 437.02127 348.1375Q437.52127 348.71564 438.20877 348.71564Q438.89627 348.71564 439.38065 348.15314Q439.86502 347.59064 439.86502 346.4344Q439.86502 345.15314 439.36502 344.5594Q438.88065 343.96564 438.1619 343.96564Q437.45877 343.96564 436.99002 344.54376Q436.52127 345.10626 436.52127 346.34064ZM447.83377 351.98126Q446.95877 350.8719 446.3494 349.40314Q445.75565 347.91876 445.75565 346.34064Q445.75565 344.95 446.19315 343.66876Q446.7244 342.1844 447.83377 340.71564L448.58377 340.71564Q447.88065 341.9344 447.64627 342.45Q447.2869 343.2625 447.08377 344.1375Q446.83377 345.23126 446.83377 346.34064Q446.83377 349.16876 448.58377 351.98126L447.83377 351.98126ZM453.88065 347.16876L454.9119 347.3094Q454.74002 348.3719 454.0369 348.98126Q453.33377 349.59064 452.31815 349.59064Q451.0369 349.59064 450.25565 348.7625Q449.49002 347.91876 449.49002 346.35626Q449.49002 345.35626 449.81815 344.60626Q450.1619 343.84064 450.83377 343.46564Q451.52127 343.09064 452.33377 343.09064Q453.33377 343.09064 453.9744 343.60626Q454.63065 344.10626 454.81815 345.0594L453.7869 345.21564Q453.64627 344.59064 453.27127 344.27814Q452.89627 343.95 452.36502 343.95Q451.56815 343.95 451.06815 344.52814Q450.56815 345.09064 450.56815 346.325Q450.56815 347.59064 451.05252 348.15314Q451.5369 348.71564 452.30252 348.71564Q452.92752 348.71564 453.33377 348.34064Q453.75565 347.96564 453.88065 347.16876ZM459.89627 349.45L459.89627 348.52814Q459.1619 349.59064 457.9119 349.59064Q457.36502 349.59064 456.88065 349.3875Q456.4119 349.16876 456.17752 348.85626Q455.94315 348.52814 455.8494 348.0594Q455.7869 347.7625 455.7869 347.075L455.7869 343.23126L456.8494 343.23126L456.8494 346.6844Q456.8494 347.4969 456.9119 347.79376Q457.00565 348.2 457.31815 348.45Q457.64627 348.6844 458.13065 348.6844Q458.5994 348.6844 459.00565 348.45Q459.42752 348.2 459.5994 347.77814Q459.7869 347.35626 459.7869 346.5594L459.7869 343.23126L460.83377 343.23126L460.83377 349.45L459.89627 349.45ZM462.39627 347.59064L463.42752 347.4344Q463.52127 348.0594 463.9119 348.3875Q464.31815 348.71564 465.05252 348.71564Q465.77127 348.71564 466.11502 348.4344Q466.4744 348.1375 466.4744 347.73126Q466.4744 347.3719 466.1619 347.16876Q465.94315 347.02814 465.08377 346.8094Q463.92752 346.5125 463.4744 346.3094Q463.0369 346.09064 462.80252 345.71564Q462.56815 345.34064 462.56815 344.8719Q462.56815 344.46564 462.75565 344.10626Q462.94315 343.7469 463.27127 343.5125Q463.52127 343.34064 463.94315 343.21564Q464.36502 343.09064 464.86502 343.09064Q465.58377 343.09064 466.13065 343.3094Q466.69315 343.5125 466.95877 343.8719Q467.2244 344.23126 467.31815 344.825L466.2869 344.96564Q466.2244 344.4969 465.88065 344.23126Q465.55252 343.95 464.92752 343.95Q464.20877 343.95 463.89627 344.2Q463.58377 344.4344 463.58377 344.7625Q463.58377 344.96564 463.70877 345.1219Q463.8494 345.29376 464.11502 345.40314Q464.27127 345.46564 465.05252 345.66876Q466.17752 345.98126 466.61502 346.16876Q467.05252 346.35626 467.30252 346.71564Q467.55252 347.075 467.55252 347.6219Q467.55252 348.15314 467.24002 348.6219Q466.94315 349.075 466.36502 349.34064Q465.7869 349.59064 465.05252 349.59064Q463.83377 349.59064 463.19315 349.09064Q462.56815 348.575 462.39627 347.59064ZM471.11502 348.5125L471.27127 349.4344Q470.81815 349.52814 470.4744 349.52814Q469.89627 349.52814 469.58377 349.35626Q469.27127 349.16876 469.13065 348.8719Q469.00565 348.575 469.00565 347.6219L469.00565 344.04376L468.24002 344.04376L468.24002 343.23126L469.00565 343.23126L469.00565 341.6844L470.05252 341.0594L470.05252 343.23126L471.11502 343.23126L471.11502 344.04376L470.05252 344.04376L470.05252 347.6844Q470.05252 348.1375 470.0994 348.2625Q470.1619 348.3875 470.2869 348.46564Q470.4119 348.54376 470.64627 348.54376Q470.83377 348.54376 471.11502 348.5125ZM471.42752 346.34064Q471.42752 344.60626 472.38065 343.77814Q473.17752 343.09064 474.33377 343.09064Q475.61502 343.09064 476.42752 343.9344Q477.25565 344.7625 477.25565 346.2469Q477.25565 347.45 476.89627 348.1375Q476.5369 348.825 475.83377 349.21564Q475.14627 349.59064 474.33377 349.59064Q473.0369 349.59064 472.2244 348.7625Q471.42752 347.91876 471.42752 346.34064ZM472.50565 346.34064Q472.50565 347.52814 473.02127 348.1219Q473.55252 348.71564 474.33377 348.71564Q475.13065 348.71564 475.64627 348.1219Q476.1619 347.52814 476.1619 346.3094Q476.1619 345.15314 475.63065 344.5594Q475.11502 343.96564 474.33377 343.96564Q473.55252 343.96564 473.02127 344.5594Q472.50565 345.1375 472.50565 346.34064ZM478.81815 349.45L478.81815 343.23126L479.75565 343.23126L479.75565 344.10626Q480.05252 343.6375 480.5369 343.3719Q481.02127 343.09064 481.64627 343.09064Q482.33377 343.09064 482.77127 343.3719Q483.2244 343.65314 483.39627 344.16876Q484.14627 343.09064 485.31815 343.09064Q486.25565 343.09064 486.74002 343.60626Q487.24002 344.10626 487.24002 345.1844L487.24002 349.45L486.19315 349.45L486.19315 345.52814Q486.19315 344.90314 486.08377 344.6219Q485.99002 344.34064 485.7244 344.16876Q485.45877 343.9969 485.08377 343.9969Q484.42752 343.9969 483.99002 344.4344Q483.56815 344.8719 483.56815 345.84064L483.56815 349.45L482.50565 349.45L482.50565 345.40314Q482.50565 344.7 482.24002 344.35626Q481.99002 343.9969 481.4119 343.9969Q480.95877 343.9969 480.58377 344.23126Q480.20877 344.46564 480.0369 344.91876Q479.86502 345.3719 479.86502 346.21564L479.86502 349.45L478.81815 349.45ZM489.50565 351.98126L488.75565 351.98126Q490.50565 349.16876 490.50565 346.34064Q490.50565 345.2469 490.25565 344.15314Q490.05252 343.27814 489.69315 342.46564Q489.45877 341.95 488.75565 340.71564L489.50565 340.71564Q490.5994 342.1844 491.13065 343.66876Q491.58377 344.95 491.58377 346.34064Q491.58377 347.91876 490.9744 349.40314Q490.36502 350.8719 489.50565 351.98126Z" fill-rule="nonzero"/></svg>